<?xml version="1.0" encoding="UTF-8" standalone="no"?>
<!-- Created with Inkscape (http://www.inkscape.org/) -->

<svg
   width="2.8229592in"
   height="10.104167in"
   viewBox="0 0 71.703163 256.64584"
   version="1.1"
   id="svg5"
   inkscape:version="1.2.1 (9c6d41e410, 2022-07-14)"
   sodipodi:docname="windmillside2.svg"
   xmlns:inkscape="http://www.inkscape.org/namespaces/inkscape"
   xmlns:sodipodi="http://sodipodi.sourceforge.net/DTD/sodipodi-0.dtd"
   xmlns="http://www.w3.org/2000/svg"
   xmlns:svg="http://www.w3.org/2000/svg">
  <sodipodi:namedview
     id="namedview7"
     pagecolor="#505050"
     bordercolor="#ffffff"
     borderopacity="1"
     inkscape:showpageshadow="0"
     inkscape:pageopacity="0"
     inkscape:pagecheckerboard="1"
     inkscape:deskcolor="#505050"
     inkscape:document-units="mm"
     showgrid="true"
     inkscape:zoom="0.70710678"
     inkscape:cx="-304.05592"
     inkscape:cy="504.87424"
     inkscape:window-width="1920"
     inkscape:window-height="1057"
     inkscape:window-x="1592"
     inkscape:window-y="-8"
     inkscape:window-maximized="1"
     inkscape:current-layer="svg5"
     showguides="true">
    <inkscape:grid
       type="xygrid"
       id="grid1775"
       units="in"
       spacingx="6.35"
       spacingy="6.35"
       empspacing="4"
       color="#ffffff"
       opacity="0.1254902"
       empcolor="#ffffff"
       empopacity="0.25098039"
       originx="-3.2006753"
       originy="6.6980081e-13"
       enabled="true" />
    <inkscape:grid
       type="xygrid"
       id="grid2503"
       color="#4fff3f"
       opacity="0.1254902"
       empcolor="#3fff47"
       empopacity="0.13333333"
       empspacing="1"
       units="in"
       spacingx="6.35"
       spacingy="6.35"
       originy="3.1750001"
       originx="-0.025675391"
       enabled="true" />
    <inkscape:grid
       type="xygrid"
       id="grid9404"
       color="#ff3f3f"
       opacity="0.1254902"
       empcolor="#ff3f3f"
       empopacity="0.1254902"
       spacingx="3.175"
       spacingy="3.175"
       empspacing="1"
       originy="1.5875"
       originx="-1.6131753"
       enabled="true"
       units="in" />
  </sodipodi:namedview>
  <defs
     id="defs2">
    <inkscape:path-effect
       effect="fillet_chamfer"
       id="path-effect1251"
       is_visible="true"
       lpeversion="1"
       nodesatellites_param="F,0,0,1,0,0.47562074,0,1 @ F,0,0,1,0,0,0,1 @ F,0,0,1,0,0.47563041,0,1 @ F,0,0,1,0,0.5256182,0,1 @ F,0,0,1,0,0,0,1 @ F,0,0,1,0,0,0,1 @ F,0,0,1,0,0.47563041,0,1 @ F,0,0,1,0,0.5256182,0,1 @ F,0,0,1,0,0,0,1 @ F,0,0,1,0,0,0,1 @ F,0,0,1,0,0.47562074,0,1 @ F,0,0,1,0,0.52562888,0,1 @ F,0,0,1,0,0,0,1 @ F,0,0,1,0,0,0,1 @ F,0,0,1,0,0.47562074,0,1 @ F,0,0,1,0,0.52562888,0,1 @ F,0,0,1,0,0,0,1 @ F,0,0,1,0,0,0,1 @ F,0,0,1,0,0.47562074,0,1 @ F,0,0,1,0,0.52562888,0,1 @ F,0,0,1,0,0,0,1 @ F,0,0,1,0,0.508,0,1 @ F,0,0,1,0,0.508,0,1 @ F,0,0,1,0,0,0,1 @ F,0,0,1,0,0.52509337,0,1 @ F,0,0,1,0,0,0,1 @ F,0,0,1,0,0.52676033,0,1 @ F,0,0,1,0,0.47459914,0,1 @ F,0,0,1,0,0,0,1 @ F,0,0,1,0,0,0,1 @ F,0,0,1,0,0.52676033,0,1 @ F,0,0,1,0,0.47459914,0,1 @ F,0,0,1,0,0,0,1 @ F,0,0,1,0,0.025154955,0,1 @ F,0,0,1,0,0.5267715,0,1 @ F,0,0,1,0,0.5,0,1 @ F,0,0,1,0,0,0,1 @ F,0,0,1,0,0,0,1 @ F,0,0,1,0,0.52677148,0,1 @ F,0,0,1,0,0.4745891,0,1 @ F,0,0,1,0,0,0,1 @ F,0,0,1,0,0,0,1 @ F,0,0,1,0,0.52618774,0,1 @ F,0,0,1,0,0.47511559,0,1 @ F,0,0,1,0,0,0,1 @ F,0,1,1,0,0.508,0,1 @ F,0,1,1,0,0.508,0,1 @ F,0,0,1,0,0,0,1"
       unit="in"
       method="auto"
       mode="F"
       radius="0.02"
       chamfer_steps="1"
       flexible="false"
       use_knot_distance="true"
       apply_no_radius="true"
       apply_with_radius="true"
       only_selected="true"
       hide_knots="false" />
    <inkscape:path-effect
       effect="fillet_chamfer"
       id="path-effect516"
       is_visible="true"
       lpeversion="1"
       nodesatellites_param="F,0,0,1,0,0.508,0,1 @ F,0,0,1,0,0.508,0,1 @ F,0,0,1,0,0.508,0,1 @ F,0,0,1,0,0.508,0,1"
       unit="in"
       method="auto"
       mode="F"
       radius="0.02"
       chamfer_steps="1"
       flexible="false"
       use_knot_distance="true"
       apply_no_radius="true"
       apply_with_radius="true"
       only_selected="false"
       hide_knots="false" />
    <inkscape:path-effect
       effect="perspective-envelope"
       up_left_point="26.964371,0"
       up_right_point="52.364371,0"
       down_left_point="19.024369,254"
       down_right_point="60.299371,254"
       id="path-effect513"
       is_visible="true"
       lpeversion="1"
       deform_type="envelope_deformation"
       horizontal_mirror="false"
       vertical_mirror="false"
       overflow_perspective="false" />
    <inkscape:path-effect
       effect="fillet_chamfer"
       id="path-effect5174"
       is_visible="true"
       lpeversion="1"
       nodesatellites_param="F,0,0,1,0,0.508,0,1 @ F,0,0,1,0,0.508,0,1 @ F,0,0,1,0,0.508,0,1 | F,0,0,1,0,0.508,0,1 @ F,0,0,1,0,0.508,0,1 @ F,0,0,1,0,0.508,0,1"
       unit="in"
       method="auto"
       mode="F"
       radius="0.02"
       chamfer_steps="1"
       flexible="false"
       use_knot_distance="true"
       apply_no_radius="true"
       apply_with_radius="true"
       only_selected="false"
       hide_knots="false" />
    <inkscape:path-effect
       effect="fillet_chamfer"
       id="path-effect4422"
       is_visible="true"
       lpeversion="1"
       nodesatellites_param="F,0,0,1,0,0.47562074,0,1 @ F,0,0,1,0,0,0,1 @ F,0,0,1,0,0.47563041,0,1 @ F,0,0,1,0,0.5256182,0,1 @ F,0,0,1,0,0,0,1 @ F,0,0,1,0,0,0,1 @ F,0,0,1,0,0.47563041,0,1 @ F,0,0,1,0,0.5256182,0,1 @ F,0,0,1,0,0,0,1 @ F,0,0,1,0,0,0,1 @ F,0,0,1,0,0.47562074,0,1 @ F,0,0,1,0,0.52562888,0,1 @ F,0,0,1,0,0,0,1 @ F,0,0,1,0,0,0,1 @ F,0,0,1,0,0.47562074,0,1 @ F,0,0,1,0,0.52562888,0,1 @ F,0,0,1,0,0,0,1 @ F,0,0,1,0,0,0,1 @ F,0,0,1,0,0.47562074,0,1 @ F,0,0,1,0,0.52562888,0,1 @ F,0,0,1,0,0,0,1 @ F,0,1,1,0,0.508,0,1 @ F,0,1,1,0,0.508,0,1 @ F,0,0,1,0,0,0,1 @ F,0,0,1,0,0.52509337,0,1 @ F,0,0,1,0,0,0,1 @ F,0,0,1,0,0.52676033,0,1 @ F,0,0,1,0,0.47459914,0,1 @ F,0,0,1,0,0,0,1 @ F,0,0,1,0,0,0,1 @ F,0,0,1,0,0.52676033,0,1 @ F,0,0,1,0,0.47459914,0,1 @ F,0,0,1,0,0,0,1 @ F,0,0,1,0,0.025154955,0,1 @ F,0,0,1,0,0.5267715,0,1 @ F,0,0,1,0,0.5,0,1 @ F,0,0,1,0,0,0,1 @ F,0,0,1,0,0,0,1 @ F,0,0,1,0,0.52677148,0,1 @ F,0,0,1,0,0.4745891,0,1 @ F,0,0,1,0,0,0,1 @ F,0,0,1,0,0,0,1 @ F,0,0,1,0,0.52618774,0,1 @ F,0,0,1,0,0.47511559,0,1 @ F,0,0,1,0,0.5,0,1 @ F,0,0,1,0,0,0,1 @ F,0,0,1,0,0,0,1 @ F,0,0,1,0,0.5,0,1"
       unit="in"
       method="auto"
       mode="F"
       radius="0.02"
       chamfer_steps="1"
       flexible="false"
       use_knot_distance="true"
       apply_no_radius="true"
       apply_with_radius="true"
       only_selected="true"
       hide_knots="false" />
    <inkscape:path-effect
       effect="fillet_chamfer"
       id="path-effect4052"
       is_visible="true"
       lpeversion="1"
       nodesatellites_param="F,0,0,1,0,0.47562074,0,1 @ F,0,0,1,0,0,0,1 @ F,0,0,1,0,0.47563041,0,1 @ F,0,0,1,0,0.5256182,0,1 @ F,0,0,1,0,0,0,1 @ F,0,0,1,0,0,0,1 @ F,0,0,1,0,0.47563041,0,1 @ F,0,0,1,0,0.5256182,0,1 @ F,0,0,1,0,0,0,1 @ F,0,0,1,0,0,0,1 @ F,0,0,1,0,0.47562074,0,1 @ F,0,0,1,0,0.52562888,0,1 @ F,0,0,1,0,0,0,1 @ F,0,0,1,0,0,0,1 @ F,0,0,1,0,0.47562074,0,1 @ F,0,0,1,0,0.52562888,0,1 @ F,0,0,1,0,0,0,1 @ F,0,0,1,0,0,0,1 @ F,0,0,1,0,0.47562074,0,1 @ F,0,0,1,0,0.52562888,0,1 @ F,0,0,1,0,0,0,1 @ F,0,1,1,0,0.508,0,1 @ F,0,1,1,0,0.508,0,1 @ F,0,0,1,0,0,0,1 @ F,0,0,1,0,0.52509337,0,1 @ F,0,0,1,0,0,0,1 @ F,0,0,1,0,0.52676033,0,1 @ F,0,0,1,0,0.47459914,0,1 @ F,0,0,1,0,0,0,1 @ F,0,0,1,0,0,0,1 @ F,0,0,1,0,0.52676033,0,1 @ F,0,0,1,0,0.47459914,0,1 @ F,0,0,1,0,0,0,1 @ F,0,0,1,0,0.025154955,0,1 @ F,0,0,1,0,0.5267715,0,1 @ F,0,0,1,0,0.5,0,1 @ F,0,0,1,0,0,0,1 @ F,0,0,1,0,0,0,1 @ F,0,0,1,0,0.52677148,0,1 @ F,0,0,1,0,0.4745891,0,1 @ F,0,0,1,0,0,0,1 @ F,0,0,1,0,0,0,1 @ F,0,0,1,0,0.52618774,0,1 @ F,0,0,1,0,0.47511559,0,1 @ F,0,0,1,0,0.5,0,1 @ F,0,0,1,0,0,0,1 @ F,0,0,1,0,0,0,1 @ F,0,0,1,0,0.5,0,1"
       unit="in"
       method="auto"
       mode="F"
       radius="0.02"
       chamfer_steps="1"
       flexible="false"
       use_knot_distance="true"
       apply_no_radius="true"
       apply_with_radius="true"
       only_selected="true"
       hide_knots="false" />
    <inkscape:path-effect
       effect="fillet_chamfer"
       id="path-effect3146"
       is_visible="true"
       lpeversion="1"
       nodesatellites_param="F,0,0,1,0,0.47562074,0,1 @ F,0,0,1,0,0,0,1 @ F,0,0,1,0,0.47563041,0,1 @ F,0,0,1,0,0.5256182,0,1 @ F,0,0,1,0,0,0,1 @ F,0,0,1,0,0,0,1 @ F,0,0,1,0,0.47563041,0,1 @ F,0,0,1,0,0.5256182,0,1 @ F,0,0,1,0,0,0,1 @ F,0,0,1,0,0,0,1 @ F,0,0,1,0,0.47562074,0,1 @ F,0,0,1,0,0.52562888,0,1 @ F,0,0,1,0,0,0,1 @ F,0,0,1,0,0,0,1 @ F,0,0,1,0,0.47562074,0,1 @ F,0,0,1,0,0.52562888,0,1 @ F,0,0,1,0,0,0,1 @ F,0,0,1,0,0,0,1 @ F,0,0,1,0,0.47562074,0,1 @ F,0,0,1,0,0.52562888,0,1 @ F,0,0,1,0,0,0,1 @ F,0,1,1,0,0.508,0,1 @ F,0,1,1,0,0.508,0,1 @ F,0,0,1,0,0,0,1 @ F,0,0,1,0,0.52509337,0,1 @ F,0,0,1,0,0,0,1 @ F,0,0,1,0,0.52676033,0,1 @ F,0,0,1,0,0.47459914,0,1 @ F,0,0,1,0,0,0,1 @ F,0,0,1,0,0,0,1 @ F,0,0,1,0,0.52676033,0,1 @ F,0,0,1,0,0.47459914,0,1 @ F,0,0,1,0,0,0,1 @ F,0,0,1,0,0.025154955,0,1 @ F,0,0,1,0,0.5267715,0,1 @ F,0,0,1,0,0.5,0,1 @ F,0,0,1,0,0,0,1 @ F,0,0,1,0,0,0,1 @ F,0,0,1,0,0.52677148,0,1 @ F,0,0,1,0,0.4745891,0,1 @ F,0,0,1,0,0,0,1 @ F,0,0,1,0,0,0,1 @ F,0,0,1,0,0.52618774,0,1 @ F,0,0,1,0,0.47511559,0,1 @ F,0,0,1,0,0.5,0,1 @ F,0,0,1,0,0,0,1 @ F,0,0,1,0,0,0,1 @ F,0,0,1,0,0.5,0,1"
       unit="in"
       method="auto"
       mode="F"
       radius="0.02"
       chamfer_steps="1"
       flexible="false"
       use_knot_distance="true"
       apply_no_radius="true"
       apply_with_radius="true"
       only_selected="true"
       hide_knots="false" />
    <inkscape:path-effect
       effect="fillet_chamfer"
       id="path-effect4174"
       is_visible="true"
       lpeversion="1"
       nodesatellites_param="F,0,0,1,0,0.508,0,1 @ F,0,0,1,0,0.508,0,1 @ F,0,0,1,0,0.508,0,1 | F,0,0,1,0,0.508,0,1 @ F,0,0,1,0,0.508,0,1 @ F,0,0,1,0,0.508,0,1 | F,0,0,1,0,0.508,0,1 @ F,0,0,1,0,0.508,0,1 @ F,0,0,1,0,0.508,0,1 | F,0,0,1,0,0.508,0,1 @ F,0,0,1,0,0.508,0,1 @ F,0,0,1,0,0.508,0,1 | F,0,0,1,0,0.508,0,1 @ F,0,0,1,0,0.508,0,1 @ F,0,0,1,0,0.508,0,1 | F,0,0,1,0,0.508,0,1 @ F,0,0,1,0,0.508,0,1 @ F,0,0,1,0,0.508,0,1 | F,0,0,1,0,0.508,0,1 @ F,0,0,1,0,0.508,0,1 @ F,0,0,1,0,0.508,0,1 | F,0,0,1,0,0.508,0,1 @ F,0,0,1,0,0.508,0,1 @ F,0,0,1,0,0.508,0,1 | F,0,0,1,0,0.508,0,1 @ F,0,0,1,0,0.508,0,1 @ F,0,0,1,0,0.508,0,1 | F,0,0,1,0,0.508,0,1 @ F,0,0,1,0,0.508,0,1 @ F,0,0,1,0,0.508,0,1 | F,0,0,1,0,0.508,0,1 @ F,0,0,1,0,0.508,0,1 @ F,0,0,1,0,0.508,0,1 | F,0,0,1,0,0.508,0,1 @ F,0,0,1,0,0.508,0,1 @ F,0,0,1,0,0.508,0,1"
       unit="in"
       method="auto"
       mode="F"
       radius="0.02"
       chamfer_steps="1"
       flexible="false"
       use_knot_distance="true"
       apply_no_radius="true"
       apply_with_radius="true"
       only_selected="false"
       hide_knots="false" />
    <inkscape:path-effect
       effect="fillet_chamfer"
       id="path-effect4172"
       is_visible="true"
       lpeversion="1"
       nodesatellites_param="F,0,0,1,0,0.508,0,1 @ F,0,0,1,0,0.508,0,1 @ F,0,0,1,0,0.508,0,1 @ F,0,1,1,0,0,0,1 @ F,0,1,1,0,0,0,1 @ F,0,0,1,0,0.508,0,1 @ F,0,0,1,0,0.508,0,1 | F,0,0,1,0,0.508,0,1 @ F,0,0,1,0,0.508,0,1 @ F,0,0,1,0,0.508,0,1 @ F,0,1,1,0,0,0,1 @ F,0,1,1,0,0,0,1 @ F,0,0,1,0,0.508,0,1 @ F,0,0,1,0,0.508,0,1 | F,0,0,1,0,0.508,0,1 @ F,0,0,1,0,0.508,0,1 @ F,0,0,1,0,0.508,0,1 @ F,0,1,1,0,0,0,1 @ F,0,1,1,0,0,0,1 @ F,0,0,1,0,0.508,0,1 @ F,0,0,1,0,0.508,0,1 | F,0,0,1,0,0.508,0,1 @ F,0,0,1,0,0.508,0,1 @ F,0,0,1,0,0.508,0,1 @ F,0,1,1,0,0,0,1 @ F,0,1,1,0,0,0,1 @ F,0,0,1,0,0.508,0,1 @ F,0,0,1,0,0.508,0,1"
       unit="in"
       method="auto"
       mode="F"
       radius="0"
       chamfer_steps="1"
       flexible="false"
       use_knot_distance="true"
       apply_no_radius="true"
       apply_with_radius="true"
       only_selected="true"
       hide_knots="false" />
    <inkscape:path-effect
       effect="perspective-envelope"
       up_left_point="26.99,0"
       up_right_point="52.39,0"
       down_left_point="19.049998,254"
       down_right_point="60.325,254"
       id="path-effect4085"
       is_visible="true"
       lpeversion="1"
       deform_type="envelope_deformation"
       horizontal_mirror="false"
       vertical_mirror="false"
       overflow_perspective="false" />
    <inkscape:path-effect
       effect="perspective-envelope"
       up_left_point="26.99,0"
       up_right_point="52.39,0"
       down_left_point="19.049998,254"
       down_right_point="60.325,254"
       id="path-effect4075"
       is_visible="true"
       lpeversion="1"
       deform_type="envelope_deformation"
       horizontal_mirror="false"
       vertical_mirror="false"
       overflow_perspective="false" />
    <inkscape:path-effect
       effect="perspective-envelope"
       up_left_point="3.17,0"
       up_right_point="63.68,0"
       down_left_point="3.175,254.00001"
       down_right_point="76.200001,254.00001"
       id="path-effect4065"
       is_visible="true"
       lpeversion="1"
       deform_type="envelope_deformation"
       horizontal_mirror="false"
       vertical_mirror="false"
       overflow_perspective="false" />
    <inkscape:path-effect
       effect="fillet_chamfer"
       id="path-effect35513"
       is_visible="true"
       lpeversion="1"
       nodesatellites_param="F,0,1,1,0,0.5,0,1 @ F,0,1,1,0,0.5,0,1 @ F,0,1,1,0,0.5,0,1 @ F,0,0,1,0,0,0,1 @ F,0,0,1,0,0,0,1 @ F,0,1,1,0,0.5,0,1 @ F,0,1,1,0,0.5,0,1 | F,0,1,1,0,0.5,0,1 @ F,0,1,1,0,0.5,0,1 @ F,0,1,1,0,0.5,0,1 @ F,0,0,1,0,0,0,1 @ F,0,0,1,0,0,0,1 @ F,0,1,1,0,0.5,0,1 @ F,0,1,1,0,0.5,0,1 | F,0,1,1,0,0.5,0,1 @ F,0,1,1,0,0.5,0,1 @ F,0,1,1,0,0.5,0,1 @ F,0,0,1,0,0,0,1 @ F,0,0,1,0,0,0,1 @ F,0,1,1,0,0.5,0,1 @ F,0,1,1,0,0.5,0,1 | F,0,1,1,0,0.5,0,1 @ F,0,1,1,0,0.5,0,1 @ F,0,1,1,0,0.5,0,1 @ F,0,0,1,0,0,0,1 @ F,0,0,1,0,0,0,1 @ F,0,1,1,0,0.5,0,1 @ F,0,1,1,0,0.5,0,1"
       unit="in"
       method="auto"
       mode="F"
       radius="0.5"
       chamfer_steps="1"
       flexible="false"
       use_knot_distance="true"
       apply_no_radius="true"
       apply_with_radius="true"
       only_selected="true"
       hide_knots="false" />
    <inkscape:path-effect
       effect="fillet_chamfer"
       id="path-effect35511"
       is_visible="true"
       lpeversion="1"
       nodesatellites_param="F,0,0,1,0,0.5,0,1 @ F,0,0,1,0,0.5,0,1 @ F,0,0,1,0,0.5,0,1 | F,0,0,1,0,0.5,0,1 @ F,0,0,1,0,0.5,0,1 @ F,0,0,1,0,0.5,0,1 | F,0,0,1,0,0.5,0,1 @ F,0,0,1,0,0.5,0,1 @ F,0,0,1,0,0.5,0,1 | F,0,0,1,0,0.5,0,1 @ F,0,0,1,0,0.5,0,1 @ F,0,0,1,0,0.5,0,1 | F,0,0,1,0,0.5,0,1 @ F,0,0,1,0,0.5,0,1 @ F,0,0,1,0,0.5,0,1 | F,0,0,1,0,0.5,0,1 @ F,0,0,1,0,0.5,0,1 @ F,0,0,1,0,0.5,0,1 | F,0,0,1,0,0.5,0,1 @ F,0,0,1,0,0.5,0,1 @ F,0,0,1,0,0.5,0,1 | F,0,0,1,0,0.5,0,1 @ F,0,0,1,0,0.5,0,1 @ F,0,0,1,0,0.5,0,1 | F,0,0,1,0,0.5,0,1 @ F,0,0,1,0,0.5,0,1 @ F,0,0,1,0,0.5,0,1 | F,0,0,1,0,0.5,0,1 @ F,0,0,1,0,0.5,0,1 @ F,0,0,1,0,0.5,0,1 | F,0,0,1,0,0.5,0,1 @ F,0,0,1,0,0.5,0,1 @ F,0,0,1,0,0.5,0,1 | F,0,0,1,0,0.5,0,1 @ F,0,0,1,0,0.5,0,1 @ F,0,0,1,0,0.5,0,1 | F,0,0,1,0,0.5,0,1 @ F,0,0,1,0,0.5,0,1 @ F,0,0,1,0,0.5,0,1 | F,0,0,1,0,0.5,0,1 @ F,0,0,1,0,0.5,0,1 @ F,0,0,1,0,0.5,0,1 | F,0,0,1,0,0.5,0,1 @ F,0,0,1,0,0.5,0,1 @ F,0,0,1,0,0.5,0,1 | F,0,0,1,0,0.5,0,1 @ F,0,0,1,0,0.5,0,1 @ F,0,0,1,0,0.5,0,1 | F,0,0,1,0,0.5,0,1 @ F,0,0,1,0,0.5,0,1 @ F,0,0,1,0,0.5,0,1 | F,0,0,1,0,0.5,0,1 @ F,0,0,1,0,0.5,0,1 @ F,0,0,1,0,0.5,0,1 | F,0,0,1,0,0.5,0,1 @ F,0,0,1,0,0.5,0,1 @ F,0,0,1,0,0.5,0,1 | F,0,0,1,0,0.5,0,1 @ F,0,0,1,0,0.5,0,1 @ F,0,0,1,0,0.5,0,1 | F,0,0,1,0,0.5,0,1 @ F,0,0,1,0,0.5,0,1 @ F,0,0,1,0,0.5,0,1 | F,0,0,1,0,0.5,0,1 @ F,0,0,1,0,0.5,0,1 @ F,0,0,1,0,0.5,0,1 | F,0,0,1,0,0.5,0,1 @ F,0,0,1,0,0.5,0,1 @ F,0,0,1,0,0.5,0,1 | F,0,0,1,0,0.5,0,1 @ F,0,0,1,0,0.5,0,1 @ F,0,0,1,0,0.5,0,1"
       unit="in"
       method="auto"
       mode="F"
       radius="0.5"
       chamfer_steps="1"
       flexible="false"
       use_knot_distance="true"
       apply_no_radius="true"
       apply_with_radius="true"
       only_selected="false"
       hide_knots="false" />
    <inkscape:path-effect
       effect="fillet_chamfer"
       id="path-effect35509"
       is_visible="true"
       lpeversion="1"
       nodesatellites_param="F,0,0,1,0,0.47562074,0,1 @ F,0,0,1,0,0,0,1 @ F,0,0,1,0,0.47563041,0,1 @ F,0,0,1,0,0.5256182,0,1 @ F,0,0,1,0,0,0,1 @ F,0,0,1,0,0,0,1 @ F,0,0,1,0,0.47563041,0,1 @ F,0,0,1,0,0.5256182,0,1 @ F,0,0,1,0,0,0,1 @ F,0,0,1,0,0,0,1 @ F,0,0,1,0,0.47562074,0,1 @ F,0,0,1,0,0.52562888,0,1 @ F,0,0,1,0,0,0,1 @ F,0,0,1,0,0,0,1 @ F,0,0,1,0,0.47562074,0,1 @ F,0,0,1,0,0.52562888,0,1 @ F,0,0,1,0,0,0,1 @ F,0,0,1,0,0,0,1 @ F,0,0,1,0,0.47562074,0,1 @ F,0,0,1,0,0.52562888,0,1 @ F,0,0,1,0,0.5,0,1 @ F,0,0,1,0,0,0,1 @ F,0,0,1,0,0,0,1 @ F,0,0,1,0,0.5,0,1 @ F,0,0,1,0,0.52509337,0,1 @ F,0,0,1,0,0,0,1 @ F,0,0,1,0,0.52676033,0,1 @ F,0,0,1,0,0.47459914,0,1 @ F,0,0,1,0,0,0,1 @ F,0,0,1,0,0,0,1 @ F,0,0,1,0,0.52676033,0,1 @ F,0,0,1,0,0.47459914,0,1 @ F,0,0,1,0,0,0,1 @ F,0,0,1,0,0.025154955,0,1 @ F,0,0,1,0,0.5267715,0,1 @ F,0,1,1,0,0.5,0,1 @ F,0,0,1,0,0,0,1 @ F,0,0,1,0,0,0,1 @ F,0,0,1,0,0.52677148,0,1 @ F,0,0,1,0,0.4745891,0,1 @ F,0,0,1,0,0,0,1 @ F,0,0,1,0,0,0,1 @ F,0,0,1,0,0.52618774,0,1 @ F,0,0,1,0,0.47511559,0,1 @ F,0,0,1,0,0.5,0,1 @ F,0,0,1,0,0,0,1 @ F,0,0,1,0,0,0,1 @ F,0,0,1,0,0.5,0,1"
       unit="in"
       method="auto"
       mode="F"
       radius="0.5"
       chamfer_steps="1"
       flexible="false"
       use_knot_distance="true"
       apply_no_radius="true"
       apply_with_radius="true"
       only_selected="true"
       hide_knots="false" />
    <inkscape:path-effect
       effect="perspective-envelope"
       up_left_point="15.88,0"
       up_right_point="63.52,0"
       down_left_point="0,254"
       down_right_point="79.374998,254"
       id="path-effect35394"
       is_visible="true"
       lpeversion="1"
       deform_type="envelope_deformation"
       horizontal_mirror="false"
       vertical_mirror="false"
       overflow_perspective="false" />
    <inkscape:path-effect
       effect="perspective-envelope"
       up_left_point="0,0"
       up_right_point="79.374997,0"
       down_left_point="0,254"
       down_right_point="79.374997,254"
       id="path-effect35354"
       is_visible="true"
       lpeversion="1"
       deform_type="envelope_deformation"
       horizontal_mirror="false"
       vertical_mirror="false"
       overflow_perspective="false" />
    <inkscape:path-effect
       effect="perspective-envelope"
       up_left_point="12.7,0"
       up_right_point="66.68,0"
       down_left_point="0,254"
       down_right_point="79.375,254"
       id="path-effect9346"
       is_visible="true"
       lpeversion="1"
       deform_type="envelope_deformation"
       horizontal_mirror="false"
       vertical_mirror="false"
       overflow_perspective="false" />
    <inkscape:path-effect
       effect="perspective-envelope"
       up_left_point="26.964371,0"
       up_right_point="52.364371,0"
       down_left_point="19.024369,254"
       down_right_point="60.299371,254"
       id="path-effect4939"
       is_visible="true"
       lpeversion="1"
       deform_type="envelope_deformation"
       horizontal_mirror="false"
       vertical_mirror="false"
       overflow_perspective="false" />
  </defs>
  <g
     inkscape:groupmode="layer"
     id="layer6"
     inkscape:label="main cut"
     transform="translate(-3.1750464)">
    <path
       id="path3142"
       style="display:none;fill:#000000;stroke-width:0.1;stroke-linejoin:round"
       d="M 22.201289,0.47502933 20.954793,25.447259 h -5.87437 a 0.50028245,0.50028245 136.44701 0 0 -0.499644,0.475024 l -1.219138,24.115928 a 0.49971771,0.49971771 46.447012 0 0 0.49908,0.524948 h 5.824382 l -1.270206,25.6841 h -5.87437 a 0.50028244,0.50028244 136.44701 0 0 -0.499644,0.475024 l -1.219138,24.115927 a 0.49971771,0.49971771 46.447012 0 0 0.49908,0.52495 h 5.824382 L 15.875,127.04726 h -5.874379 a 0.50028255,0.50028255 136.4476 0 0 -0.4996442,0.47501 L 8.2813424,151.6382 a 0.4997176,0.4997176 46.4476 0 0 0.4990798,0.52496 h 5.8243708 l -1.26969,25.6841 H 7.4607241 a 0.50028256,0.50028256 136.4476 0 0 -0.499644,0.47501 L 5.7414457,202.4382 a 0.4997176,0.4997176 46.4476 0 0 0.4990798,0.52496 h 5.8243715 l -1.26969,25.6841 H 4.9208274 a 0.50004655,0.50004655 136.4341 0 0 -0.4994201,0.47502 L 3.2013017,253.47503 A 0.49995345,0.49995345 46.434099 0 0 3.7006289,254 H 26.9875 v 2.13783 a 0.508,0.508 45 0 0 0.508,0.508 h 24.384 a 0.508,0.508 135 0 0 0.508,-0.508 V 254 h 16.937407 a 0.49972112,0.49972112 133.58177 0 0 0.499109,-0.52445 l -1.244223,-25.11239 h 5.82324 a 0.50080356,0.50080356 133.55299 0 0 0.500165,-0.52609 l -1.219133,-24.11582 a 0.49919772,0.49919772 43.552988 0 0 -0.498561,-0.47399 h -5.875401 l -1.270206,-25.6841 h 5.82324 a 0.50080356,0.50080356 133.55299 0 0 0.500165,-0.52609 l -1.219133,-24.11582 a 0.49919772,0.49919772 43.552988 0 0 -0.498561,-0.47399 h -5.875401 l -1.268964,-25.65898 a 0.02394166,0.02394166 133.58437 0 1 0.02391,-0.0251 l 5.798073,0 a 0.50080389,0.50080389 133.5524 0 0 0.500165,-0.5261 l -1.218345,-24.09044 a 0.52592593,0.52592593 43.5524 0 0 -0.525255,-0.49936 h -5.85 l -1.26969,-25.684101 h 5.823229 A 0.50080389,0.50080389 133.5524 0 0 67.283496,75.43706 L 66.063868,51.321242 a 0.49919741,0.49919741 43.552401 0 0 -0.49856,-0.473983 h -5.875411 l -1.26969,-25.6841 h 5.823812 a 0.50029636,0.50029636 133.55511 0 0 0.49966,-0.525519 L 63.523953,0.47451142 A 0.49970381,0.49970381 43.555114 0 0 63.024884,0 H 52.8875 a 0.5,0.5 135 0 0 -0.5,0.5 v 3.2041667 h -25.4 V 0.5 a 0.5,0.5 45 0 0 -0.5,-0.5 h -3.786879 a 0.49995363,0.49995363 136.42878 0 0 -0.499332,0.47502933 z"
       sodipodi:nodetypes="ccccccccccccccccccccccccccccccccccccccccccccccccc"
       inkscape:path-effect="#path-effect3146"
       inkscape:original-d="m 22.225,0 -1.270207,25.447259 h -6.35 l -1.26969,25.1159 h 6.35 l -1.270206,25.6841 h -6.35 l -1.26969,25.115901 h 6.35 L 15.875,127.04726 h -6.35 l -1.2702067,25.1159 h 6.3499997 l -1.26969,25.6841 H 6.9851034 l -1.2702068,25.1159 h 6.3500004 l -1.26969,25.6841 H 4.4452067 L 3.175,254 h 23.8125 v 2.64583 h 25.4 V 254 H 69.85 l -1.270207,-25.63684 h 6.35 l -1.26969,-25.1159 h -6.35 l -1.270206,-25.6841 h 6.35 l -1.26969,-25.1159 h -6.35 L 63.5,126.76316 h 6.35 l -1.270207,-25.1159 h -6.35 l -1.26969,-25.684101 h 6.35 l -1.270206,-25.1159 h -6.35 l -1.26969,-25.6841 h 6.35 L 63.5,0 H 52.3875 v 3.7041667 h -25.4 V 0 Z"
       transform="translate(-0.02562903)"
       inkscape:label="alternate" />
    <path
       id="path1247"
       style="fill:#000000;stroke-width:0.1;stroke-linejoin:round"
       d="M 22.198545,3.1207179 20.954793,25.447259 h -5.87437 a 0.50028245,0.50028245 136.44701 0 0 -0.499644,0.475024 l -1.219138,24.115928 a 0.49971771,0.49971771 46.447012 0 0 0.49908,0.524948 h 5.824382 l -1.270206,25.6841 h -5.87437 a 0.50028244,0.50028244 136.44701 0 0 -0.499644,0.475024 l -1.219138,24.115927 a 0.49971771,0.49971771 46.447012 0 0 0.49908,0.52495 h 5.824382 L 15.875,127.04726 h -5.874379 a 0.50028255,0.50028255 136.4476 0 0 -0.4996442,0.47501 L 8.2813424,151.6382 a 0.4997176,0.4997176 46.4476 0 0 0.4990798,0.52496 h 5.8243708 l -1.26969,25.6841 H 7.4607241 a 0.50028256,0.50028256 136.4476 0 0 -0.499644,0.47501 L 5.7414457,202.4382 a 0.4997176,0.4997176 46.4476 0 0 0.4990798,0.52496 h 5.8243715 l -1.26969,25.6841 H 4.9208274 a 0.50004655,0.50004655 136.4341 0 0 -0.4994201,0.47502 L 3.2013017,253.47503 A 0.49995345,0.49995345 46.434099 0 0 3.7006289,254 H 26.9875 v 2.13783 a 0.508,0.508 45 0 0 0.508,0.508 h 24.384 a 0.508,0.508 135 0 0 0.508,-0.508 V 254 h 16.937407 a 0.49972112,0.49972112 133.58177 0 0 0.499109,-0.52445 l -1.244223,-25.11239 h 5.82324 a 0.50080356,0.50080356 133.55299 0 0 0.500165,-0.52609 l -1.219133,-24.11582 a 0.49919772,0.49919772 43.552988 0 0 -0.498561,-0.47399 h -5.875401 l -1.270206,-25.6841 h 5.82324 a 0.50080356,0.50080356 133.55299 0 0 0.500165,-0.52609 l -1.219133,-24.11582 a 0.49919772,0.49919772 43.552988 0 0 -0.498561,-0.47399 h -5.875401 l -1.268964,-25.65898 a 0.02394166,0.02394166 133.58437 0 1 0.02391,-0.0251 l 5.798073,0 a 0.50080389,0.50080389 133.5524 0 0 0.500165,-0.5261 l -1.218345,-24.09044 a 0.52592593,0.52592593 43.5524 0 0 -0.525255,-0.49936 h -5.85 l -1.26969,-25.684101 h 5.823229 A 0.50080389,0.50080389 133.5524 0 0 67.283496,75.43706 L 66.063868,51.321242 a 0.49919741,0.49919741 43.552401 0 0 -0.49856,-0.473983 h -5.875411 l -1.26969,-25.6841 h 5.823812 a 0.49734191,0.49734191 133.38568 0 0 0.496553,-0.525353 L 63.526759,3.1201949 A 0.50267229,0.50267229 43.385677 0 0 63.024884,2.6458334 H 52.3875 V 0.508 A 0.508,0.508 45 0 0 51.8795,0 h -24.384 a 0.508,0.508 135 0 0 -0.508,0.508 v 2.1378334 h -4.286879 a 0.50285374,0.50285374 136.59425 0 0 -0.502076,0.4748845 z"
       sodipodi:nodetypes="ccccccccccccccccccccccccccccccccccccccccccccccccc"
       inkscape:path-effect="#path-effect1251"
       inkscape:original-d="M 22.225,2.6458334 20.954793,25.447259 h -6.35 l -1.26969,25.1159 h 6.35 l -1.270206,25.6841 h -6.35 l -1.26969,25.115901 h 6.35 L 15.875,127.04726 h -6.35 l -1.2702067,25.1159 h 6.3499997 l -1.26969,25.6841 H 6.9851034 l -1.2702068,25.1159 h 6.3500004 l -1.26969,25.6841 H 4.4452067 L 3.175,254 h 23.8125 v 2.64583 h 25.4 V 254 H 69.85 l -1.270207,-25.63684 h 6.35 l -1.26969,-25.1159 h -6.35 l -1.270206,-25.6841 h 6.35 l -1.26969,-25.1159 h -6.35 L 63.5,126.76316 h 6.35 l -1.270207,-25.1159 h -6.35 l -1.26969,-25.684101 h 6.35 l -1.270206,-25.1159 h -6.35 l -1.26969,-25.6841 h 6.35 L 63.5,2.6458334 H 52.3875 V 0 h -25.4 v 2.6458334 z"
       transform="translate(-0.02562903)"
       inkscape:label="main" />
  </g>
  <g
     inkscape:groupmode="layer"
     id="layer3"
     inkscape:label="truss cuts"
     style="display:inline;fill:#800000"
     transform="translate(-3.2006754)">
    <path
       id="path4156"
       style="fill:#808080;stroke-width:0.1;stroke-linejoin:round"
       d="M 24.989116,64.007752 24.2271,88.392248 A 0.49237299,0.49237299 45.894955 0 0 24.719233,88.9 h 4.935058 a 0.508,0.508 45 0 1 0.508,0.508 v 2.667 h 19.05 v -2.667 a 0.508,0.508 135 0 1 0.508,-0.508 h 1.367317 a 0.20363875,0.20363875 111.84406 0 0 0.14066,-0.350892 L 25.372323,63.850892 a 0.22671713,0.22671713 157.73901 0 0 -0.383207,0.15686 z m -1.290361,41.274998 -0.762016,24.3845 a 0.49237299,0.49237299 45.894955 0 0 0.492133,0.50775 h 6.225419 a 0.508,0.508 45 0 1 0.508,0.508 v 2.667 h 19.05 l 0,-2.667 a 0.508,0.508 135 0 1 0.508,-0.508 h 2.358988 a 0.19164772,0.19164772 110.66945 0 0 0.126586,-0.33554 L 24.096036,105.11054 a 0.23932293,0.23932293 156.5644 0 0 -0.397281,0.17221 z m -1.29036,41.275 -0.762016,24.3845 a 0.49237299,0.49237299 45.894955 0 0 0.492133,0.50775 h 7.515779 a 0.508,0.508 45 0 1 0.508,0.508 v 2.667 h 19.05 l 0,-2.667 a 0.508,0.508 135 0 1 0.508,-0.508 h 3.350658 a 0.18084022,0.18084022 109.59495 0 0 0.114272,-0.321 L 22.81799,146.371 a 0.25106929,0.25106929 155.48991 0 0 -0.409595,0.18675 z m -1.289855,41.275 -0.762511,24.3845 a 0.49236297,0.49236297 45.895538 0 0 0.492122,0.50775 h 8.80614 a 0.508,0.508 45 0 1 0.508,0.508 v 2.667 h 19.05 v -2.667 a 0.508,0.508 135 0 1 0.508,-0.508 h 4.342329 a 0.17107108,0.17107108 108.61116 0 0 0.103483,-0.30729 L 21.538935,187.63229 a 0.26202293,0.26202293 154.5067 0 0 -0.420395,0.20046 z"
       inkscape:path-effect="#path-effect4172"
       inkscape:original-d="m 25.004983,63.5 -0.79375,25.4 h 5.951058 v 3.175 h 19.05 V 88.9 h 2.383317 z m -1.290361,41.275 -0.79375,25.4 h 7.241419 v 3.175 h 19.05 v -3.175 h 3.374988 z m -1.29036,41.275 -0.79375,25.4 h 8.531779 v 3.175 h 19.05 v -3.175 h 4.366658 z m -1.289844,41.275 -0.794267,25.4 h 9.82214 v 3.175 h 19.05 v -3.175 h 5.358329 z"
       inkscape:label="truss 2" />
    <path
       id="path4079-6"
       style="font-variation-settings:normal;display:none;vector-effect:none;fill:#00ffff;fill-opacity:1;stroke-width:0.1;stroke-linecap:butt;stroke-linejoin:round;stroke-miterlimit:4;stroke-dasharray:none;stroke-dashoffset:0;stroke-opacity:1;-inkscape-stroke:none;stop-color:#000000"
       d="m 59.837165,239.20475 -0.513809,-16.447 A 0.52411788,0.52411788 44.105324 0 0 58.799494,222.25 H 29.591938 a 0.13410737,0.13410737 104.78819 0 0 -0.06619,0.25074 l 29.885475,16.96102 a 0.2852761,0.2852761 148.89351 0 0 0.425945,-0.25701 z m -39.985041,-11.6845 -0.514131,16.447 a 0.49236814,0.49236814 45.895237 0 0 0.492128,0.50775 h 30.276067 a 0.13419421,0.13419421 104.79735 0 0 0.06627,-0.25088 L 20.309723,227.26338 a 0.30641969,0.30641969 150.69258 0 0 -0.457599,0.25687 z"
       sodipodi:nodetypes="cccccccc"
       transform="translate(0.02562903)"
       inkscape:path-effect="#path-effect5174"
       inkscape:original-d="M 59.853027,239.7125 59.307494,222.25 H 29.083938 Z m -39.985031,-12.7 -0.545875,17.4625 h 31.292067 z"
       inkscape:label="alternate bottom" />
    <path
       id="rect4071"
       style="display:inline;fill:#ffffff;stroke-width:0.1;stroke-linejoin:round"
       d="m 57.835047,187.62898 -11.93949,8.91704 a 0.37087669,0.37087669 89.377828 0 0 0.0065,0.59905 l 12.521605,8.93486 a 0.25162484,0.25162484 151.86031 0 0 0.397657,-0.21268 l -0.563401,-18.0345 a 0.26464548,0.26464548 25.728169 0 0 -0.422876,-0.20377 z M 26.076628,180.975 H 53.29981 a 0.17592807,0.17592807 70.898258 0 1 0.108804,0.31418 l -13.32131,10.48414 a 0.64546702,0.64546702 2.1890512e-4 0 1 -0.79839,0 L 25.967822,181.28918 a 0.17593024,0.17593024 109.10196 0 1 0.108806,-0.31418 z m 30.47991,-34.60691 -11.068378,8.88882 a 0.39812901,0.39812901 89.319114 0 0 0.0074,0.62668 l 11.648607,8.90782 a 0.24124375,0.24124375 152.80811 0 0 0.387671,-0.19916 l -0.563401,-18.0345 a 0.25340127,0.25340127 24.721655 0 0 -0.411947,-0.18966 z M 27.069222,139.7 h 25.238807 a 0.18614324,0.18614324 69.875968 0 1 0.120267,0.32822 l -12.352049,10.45606 a 0.60010987,0.60010987 2.3998663e-4 0 1 -0.775463,0 L 26.948952,140.02822 A 0.18614566,0.18614566 110.12427 0 1 27.069222,139.7 Z m 28.210416,-34.5919 -10.200484,8.8588 a 0.42970332,0.42970332 89.253676 0 0 0.0085,0.6561 l 10.778517,8.879 a 0.23006499,0.23006499 153.84565 0 0 0.376232,-0.18475 l -0.563401,-18.0345 a 0.24130336,0.24130336 23.61868 0 0 -0.39941,-0.17465 z M 28.061816,98.425 h 23.254432 a 0.19745242,0.19745242 68.759599 0 1 0.133348,0.343074 L 40.063573,109.19443 a 0.55475273,0.55475273 2.6102801e-4 0 1 -0.749301,-1e-5 L 27.928465,98.768078 A 0.19745508,0.19745508 111.24066 0 1 28.061816,98.425 Z M 54.004612,63.849001 44.668277,72.676 a 0.46671613,0.46671613 89.180967 0 0 0.0098,0.687305 l 9.911808,8.84839 a 0.21801767,0.21801767 154.98316 0 0 0.363102,-0.169447 L 54.389612,64.007753 a 0.22828088,0.22828088 22.40846 0 0 -0.385,-0.158752 z M 29.054411,57.15 l 21.270057,0 a 0.21001093,0.21001093 67.539439 0 1 0.148296,0.358715 l -10.423731,10.39507 a 0.50939559,0.50939559 2.8408614e-4 0 1 -0.719405,-4e-6 L 28.906112,57.508719 A 0.21001388,0.21001388 112.46084 0 1 29.054411,57.15 Z m 23.677342,-34.559257 -8.476526,8.793515 a 0.51070455,0.51070455 89.100578 0 0 0.01131,0.720237 l 9.049037,8.81601 a 0.20502857,0.20502857 156.23167 0 0 0.348003,-0.153257 L 53.100173,22.732753 a 0.21426279,0.21426279 21.079559 0 0 -0.36842,-0.14201 z m -26.083948,2e-6 8.476347,8.793509 a 0.51070484,0.51070484 90.899989 0 1 -0.01131,0.720236 l -9.049219,8.816018 a 0.2050256,0.2050256 23.769166 0 1 -0.347996,-0.153261 l 0.563756,-18.034495 a 0.21426563,0.21426563 158.9213 0 1 0.368426,-0.142007 z M 29.28347,47.625 l 20.812124,0 a 0.21310784,0.21310784 112.75823 0 0 0.152042,-0.362433 L 40.045599,36.874933 a 0.49892855,0.49892855 2.8606335e-4 0 0 -0.711919,-3e-6 L 29.131431,47.26257 A 0.21310486,0.21310486 67.24206 0 0 29.28347,47.625 Z m 0.763533,-31.75 h 19.285682 a 0.22399747,0.22399747 66.205403 0 1 0.165384,0.375071 L 40.03235,26.612429 a 0.46403845,0.46403845 3.0917664e-4 0 1 -0.685228,-3e-6 L 29.881615,16.250074 A 0.22400075,0.22400075 113.79491 0 1 30.047003,15.875 Z"
       inkscape:path-effect="#path-effect4174"
       inkscape:original-d="m 58.242061,187.325 -12.753518,9.525 13.348643,9.525 z m -32.673433,-6.35 H 53.80781 L 39.688108,192.0875 Z M 56.952623,146.05 45.092075,155.575 57.547748,165.1 Z M 26.561222,139.7 h 26.254807 l -13.127515,11.1125 z m 29.101964,-34.925 -10.96758,9.525 11.562705,9.525 z m -28.10937,-6.35 H 51.824248 L 39.688921,109.5375 Z M 54.37375,63.500001 44.299139,73.025 54.968875,82.55 Z M 28.546411,57.15 H 50.832468 L 39.689329,68.2625 Z m 24.5379,-34.924999 -9.181642,9.524999 9.776767,9.525 z m -26.78906,-10e-7 9.181455,9.524999 -9.776955,9.525 z m 2.480219,25.4 H 50.603594 L 39.689641,36.5125 Z m 0.763533,-31.75 H 49.840685 L 39.689734,26.9875 Z"
       sodipodi:nodetypes="cccccccccccccccccccccccccccccccccccccccccccccccc"
       inkscape:label="truss 1" />
    <path
       id="path509"
       style="font-variation-settings:normal;display:inline;vector-effect:none;fill:#00ffff;fill-opacity:1;stroke-width:0.1;stroke-linecap:butt;stroke-linejoin:round;stroke-miterlimit:4;stroke-dasharray:none;stroke-dashoffset:0;stroke-opacity:1;-inkscape-stroke:none;stop-color:#000000"
       d="m 59.985947,243.96725 -0.662591,-21.2095 A 0.52411789,0.52411789 44.105323 0 0 58.799494,222.25 H 20.524871 a 0.52412814,0.52412814 135.89524 0 0 -0.523872,0.50775 l -0.663006,21.2095 a 0.49236814,0.49236814 45.895237 0 0 0.492128,0.50775 h 39.663688 a 0.49237777,0.49237777 134.10532 0 0 0.492138,-0.50775 z"
       sodipodi:nodetypes="ccccc"
       transform="translate(0.02562903)"
       inkscape:path-effect="#path-effect516"
       inkscape:original-d="M 60.001809,244.475 59.307494,222.25 H 20.016871 l -0.69475,22.225 z"
       inkscape:label="bottom" />
  </g>
  <g
     inkscape:groupmode="layer"
     id="layer5"
     inkscape:label="hole"
     transform="translate(-3.2006754)">
    <path
       id="path9995"
       style="display:inline;fill:#ffff00;stroke-width:0.107;stroke-linejoin:round"
       d="m 39.689139,34.195223 c -1.350733,2.35e-4 -2.445976,-1.094433 -2.446447,-2.445167 -4.7e-4,-1.350733 1.094007,-2.446166 2.44474,-2.446873 1.350732,-7.07e-4 2.446357,1.09358 2.446829,2.445166 4.71e-4,1.351587 -1.094389,2.446639 -2.445122,2.446874 z"
       sodipodi:nodetypes="ssscs"
       inkscape:label="axle hole" />
  </g>
  <g
     inkscape:groupmode="layer"
     id="g4081"
     inkscape:label="truss cuts original"
     style="display:none;fill:#800000"
     transform="translate(-3.2006754)">
    <path
       id="path4935"
       style="font-variation-settings:normal;display:inline;vector-effect:none;fill:#ffffff;fill-opacity:1;stroke-width:0.1;stroke-linecap:butt;stroke-linejoin:round;stroke-miterlimit:4;stroke-dasharray:none;stroke-dashoffset:0;stroke-opacity:1;-inkscape-stroke:none;stop-color:#000000"
       d="m 19.123622,250.825 h 3.159736 L 22.199372,254 h -3.175 z M 50.410526,0 h 1.953845 l 0.09919,3.175 H 50.494449 Z M 26.964372,0 h 1.953846 l -0.08398,3.175 h -1.969111 z m 30.076081,250.82499 h 3.15973 L 60.299371,254 H 57.124376 Z M 60.001809,244.475 59.307494,222.25 H 20.016871 l -0.69475,22.225 z m -5.456721,-31.75 H 20.314619 l 0.794001,-25.4 z m 3.671344,-25.4 -12.753518,9.525 13.348643,9.525 z m -32.673433,-6.35 H 53.782181 L 39.662479,192.0875 Z M 53.553307,171.45 H 21.60487 l 0.794,-25.4 z m 3.373687,-25.4 -11.860548,9.525 12.455673,9.525 z M 26.535593,139.7 H 52.7904 l -13.127515,11.1125 z m 26.025933,-9.525 H 22.89512 l 0.794,-25.4 z m 3.076031,-25.4 -10.96758,9.525 11.562705,9.525 z m -28.10937,-6.35 H 51.798619 L 39.663292,109.5375 Z M 51.569746,88.9 H 24.185372 l 0.794,-25.4 z M 54.348121,63.500001 44.27351,73.025 54.943246,82.55 Z M 28.520782,57.15 H 50.806839 L 39.6637,68.2625 Z M 53.058682,22.225001 43.87704,31.75 l 9.776767,9.525 z m -26.78906,-10e-7 9.181455,9.524999 -9.776955,9.525 z m 2.480219,25.4 H 50.577965 L 39.664012,36.5125 Z m 0.763533,-31.75 H 49.815056 L 39.664105,26.9875 Z"
       inkscape:path-effect="#path-effect4939"
       inkscape:original-d="m 19.024372,250.825 h 3.175 V 254 h -3.175 z M 57.124372,0 h 3.174999 V 3.175 H 57.124372 Z M 19.024371,0 h 3.175 v 3.175 h -3.175 z m 38.100005,250.82499 h 3.174995 V 254 h -3.174995 z m 3.174995,-6.34999 -2e-6,-22.225 H 19.024371 v 22.225 z m -4.762502,-31.75 h -36.5125 v -25.4 z m 4.7625,-25.4 -14.287498,9.525 14.287498,9.525 z m -36.512498,-6.35 h 31.75 l -15.875002,11.1125 z m 31.749998,-9.525 h -36.5125 v -25.4 z m 4.7625,-25.4 -14.287498,9.525 14.287498,9.525 z M 23.786871,139.7 h 31.75 l -15.875002,11.1125 z m 31.749998,-9.525 h -36.5125 v -25.4 z m 4.7625,-25.4 -14.287498,9.525 14.287498,9.525 z m -36.512498,-6.35 h 31.75 l -15.875002,11.1125 z m 31.75,-9.525 h -36.5125 V 63.5 Z M 60.299371,63.500001 46.011873,73.025 60.299371,82.55 Z M 23.786873,57.15 h 31.75 L 39.661871,68.2625 Z M 60.299369,22.225001 46.011871,31.75 60.299369,41.275 Z m -41.274998,-10e-7 14.287498,9.524999 -14.287498,9.525 z m 4.7625,25.4 h 31.75 l -15.875,-11.1125 z m 0,-31.75 h 31.75 L 39.661869,26.9875 Z"
       sodipodi:nodetypes="ccccccccccccccccccccccccccccccccccccccccccccccccccccccccccccccccccccccccccccccccccccccccc"
       transform="translate(0.02562903)"
       inkscape:label="undeformed" />
  </g>
</svg>
