<?xml version="1.0" encoding="UTF-8" standalone="no"?>
<!-- Created with Inkscape (http://www.inkscape.org/) -->

<svg
   width="3.2475951in"
   height="3.6830122in"
   viewBox="0 0 82.488915 93.548513"
   version="1.1"
   id="svg10030"
   inkscape:version="1.2.1 (9c6d41e410, 2022-07-14)"
   sodipodi:docname="windmilltop.svg"
   xmlns:inkscape="http://www.inkscape.org/namespaces/inkscape"
   xmlns:sodipodi="http://sodipodi.sourceforge.net/DTD/sodipodi-0.dtd"
   xmlns="http://www.w3.org/2000/svg"
   xmlns:svg="http://www.w3.org/2000/svg">
  <sodipodi:namedview
     id="namedview10032"
     pagecolor="#505050"
     bordercolor="#ffffff"
     borderopacity="1"
     inkscape:showpageshadow="0"
     inkscape:pageopacity="0"
     inkscape:pagecheckerboard="1"
     inkscape:deskcolor="#505050"
     inkscape:document-units="in"
     showgrid="true"
     inkscape:zoom="1"
     inkscape:cx="-170"
     inkscape:cy="162"
     inkscape:window-width="1920"
     inkscape:window-height="1057"
     inkscape:window-x="1592"
     inkscape:window-y="-8"
     inkscape:window-maximized="1"
     inkscape:current-layer="layer3">
    <inkscape:grid
       type="axonomgrid"
       id="grid10877"
       color="#ffffff"
       opacity="0.1254902"
       empcolor="#ffffff"
       empopacity="0.25098039"
       units="in"
       spacingy="6.35"
       empspacing="4"
       originx="41.244456"
       originy="46.774256"
       enabled="true" />
    <inkscape:grid
       type="xygrid"
       id="grid14563"
       units="in"
       spacingx="6.35"
       spacingy="6.35"
       empspacing="4"
       enabled="false"
       originx="-34.954121"
       originy="-29.42575" />
    <inkscape:grid
       type="axonomgrid"
       id="grid30897"
       spacingy="3.175"
       units="in"
       originx="41.244456"
       originy="46.774256"
       enabled="true" />
  </sodipodi:namedview>
  <defs
     id="defs10027">
    <inkscape:path-effect
       effect="fillet_chamfer"
       id="path-effect746"
       is_visible="true"
       lpeversion="1"
       nodesatellites_param="F,0,0,1,0,0.86602527,0,1 @ F,0,0,1,0,0.86602541,0,1 @ F,0,0,1,0,0.86602553,0,1 | F,0,0,1,0,0.86602529,0,1 @ F,0,0,1,0,0.86602543,0,1 @ F,0,0,1,0,0.86602549,0,1 | F,0,0,1,0,0.86602541,0,1 @ F,0,0,1,0,0.86602541,0,1 @ F,0,0,1,0,0.86602539,0,1 | F,0,0,1,0,0.86602535,0,1 @ F,0,0,1,0,0.86602543,0,1 @ F,0,0,1,0,0.86602543,0,1 | F,0,0,1,0,0.86602539,0,1 @ F,0,0,1,0,0.86602543,0,1 @ F,0,0,1,0,0.86602539,0,1 | F,0,0,1,0,0.86602535,0,1 @ F,0,0,1,0,0.86602543,0,1 @ F,0,0,1,0,0.86602543,0,1"
       unit="in"
       method="auto"
       mode="F"
       radius="0.5"
       chamfer_steps="1"
       flexible="false"
       use_knot_distance="false"
       apply_no_radius="true"
       apply_with_radius="true"
       only_selected="false"
       hide_knots="false" />
    <inkscape:path-effect
       effect="fillet_chamfer"
       id="path-effect568"
       is_visible="true"
       lpeversion="1"
       nodesatellites_param="F,0,0,1,0,11.999994,0,1 @ F,0,0,1,0,11.999999,0,1 @ F,0,0,1,0,12.000002,0,1 @ F,0,0,1,0,12.000001,0,1 @ F,0,0,1,0,11.999998,0,1 @ F,0,0,1,0,11.999991,0,1"
       unit="in"
       method="auto"
       mode="F"
       radius="2"
       chamfer_steps="1"
       flexible="false"
       use_knot_distance="true"
       apply_no_radius="true"
       apply_with_radius="true"
       only_selected="false"
       hide_knots="false" />
    <inkscape:path-effect
       effect="fillet_chamfer"
       id="path-effect359"
       is_visible="true"
       lpeversion="1"
       nodesatellites_param="F,0,0,1,0,2,0,1 @ F,0,0,1,0,2,0,1 @ F,0,0,1,0,0,0,1 @ F,0,0,1,0,2,0,1 @ F,0,0,1,0,0,0,1 @ F,0,0,1,0,2,0,1 @ F,0,0,1,0,2,0,1 @ F,0,0,1,0,0,0,1 @ F,0,0,1,0,2,0,1 @ F,0,0,1,0,0,0,1 @ F,0,1,1,0,2,0,1 @ F,0,1,1,0,2,0,1 @ F,0,0,1,0,0,0,1 @ F,0,0,1,0,2,0,1 @ F,0,0,1,0,0,0,1 @ F,0,1,1,0,2,0,1 @ F,0,1,1,0,2,0,1 @ F,0,0,1,0,0,0,1 @ F,0,0,1,0,2,0,1 @ F,0,0,1,0,0,0,1 @ F,0,0,1,0,2,0,1 @ F,0,0,1,0,2,0,1 @ F,0,0,1,0,0,0,1 @ F,0,0,1,0,2,0,1 @ F,0,0,1,0,0,0,1 @ F,0,0,1,0,2,0,1 @ F,0,0,1,0,2,0,1 @ F,0,0,1,0,0,0,1 @ F,0,0,1,0,2,0,1 @ F,0,0,1,0,0,0,1"
       unit="in"
       method="auto"
       mode="F"
       radius="2"
       chamfer_steps="1"
       flexible="false"
       use_knot_distance="true"
       apply_no_radius="true"
       apply_with_radius="true"
       only_selected="true"
       hide_knots="false" />
    <inkscape:path-effect
       effect="fillet_chamfer"
       id="path-effect1335"
       is_visible="true"
       lpeversion="1"
       nodesatellites_param="F,0,0,1,0,2,0,1 @ F,0,0,1,0,2,0,1 @ F,0,0,1,0,0,0,1 @ F,0,0,1,0,2,0,1 @ F,0,0,1,0,0,0,1 @ F,0,0,1,0,2,0,1 @ F,0,0,1,0,2,0,1 @ F,0,0,1,0,0,0,1 @ F,0,0,1,0,2,0,1 @ F,0,0,1,0,0,0,1 @ F,0,1,1,0,2,0,1 @ F,0,1,1,0,2,0,1 @ F,0,0,1,0,0,0,1 @ F,0,0,1,0,2,0,1 @ F,0,0,1,0,0,0,1 @ F,0,1,1,0,2,0,1 @ F,0,1,1,0,2,0,1 @ F,0,0,1,0,0,0,1 @ F,0,0,1,0,2,0,1 @ F,0,0,1,0,0,0,1 @ F,0,0,1,0,2,0,1 @ F,0,0,1,0,2,0,1 @ F,0,0,1,0,0,0,1 @ F,0,0,1,0,2,0,1 @ F,0,0,1,0,0,0,1 @ F,0,0,1,0,2,0,1 @ F,0,0,1,0,2,0,1 @ F,0,0,1,0,0,0,1 @ F,0,0,1,0,2,0,1 @ F,0,0,1,0,0,0,1"
       unit="in"
       method="auto"
       mode="F"
       radius="2"
       chamfer_steps="1"
       flexible="false"
       use_knot_distance="true"
       apply_no_radius="true"
       apply_with_radius="true"
       only_selected="true"
       hide_knots="false" />
    <inkscape:path-effect
       effect="fillet_chamfer"
       id="path-effect35791"
       is_visible="true"
       lpeversion="1"
       nodesatellites_param="F,0,0,1,0,0.86602527,0,1 @ F,0,0,1,0,0.86602541,0,1 @ F,0,0,1,0,0.86602553,0,1 | F,0,0,1,0,0.86602529,0,1 @ F,0,0,1,0,0.86602543,0,1 @ F,0,0,1,0,0.86602549,0,1 | F,0,0,1,0,0.86602541,0,1 @ F,0,0,1,0,0.86602541,0,1 @ F,0,0,1,0,0.86602539,0,1 | F,0,0,1,0,0.86602535,0,1 @ F,0,0,1,0,0.86602543,0,1 @ F,0,0,1,0,0.86602543,0,1 | F,0,0,1,0,0.86602539,0,1 @ F,0,0,1,0,0.86602543,0,1 @ F,0,0,1,0,0.86602539,0,1 | F,0,0,1,0,0.86602535,0,1 @ F,0,0,1,0,0.86602543,0,1 @ F,0,0,1,0,0.86602543,0,1"
       unit="in"
       method="auto"
       mode="F"
       radius="0.5"
       chamfer_steps="1"
       flexible="false"
       use_knot_distance="false"
       apply_no_radius="true"
       apply_with_radius="true"
       only_selected="false"
       hide_knots="false" />
    <inkscape:path-effect
       effect="fillet_chamfer"
       id="path-effect35785"
       is_visible="true"
       lpeversion="1"
       nodesatellites_param="F,0,0,1,0,0.86602538,0,1 @ F,0,0,1,0,0.8660254,0,1 @ F,0,0,1,0,0.86602543,0,1"
       unit="in"
       method="auto"
       mode="F"
       radius="0.5"
       chamfer_steps="1"
       flexible="false"
       use_knot_distance="false"
       apply_no_radius="true"
       apply_with_radius="true"
       only_selected="false"
       hide_knots="false" />
    <inkscape:path-effect
       effect="fillet_chamfer"
       id="path-effect35779"
       is_visible="true"
       lpeversion="1"
       nodesatellites_param="F,0,0,1,0,0.86602538,0,1 @ F,0,0,1,0,0.8660254,0,1 @ F,0,0,1,0,0.86602543,0,1"
       unit="in"
       method="auto"
       mode="F"
       radius="0.5"
       chamfer_steps="1"
       flexible="false"
       use_knot_distance="false"
       apply_no_radius="true"
       apply_with_radius="true"
       only_selected="false"
       hide_knots="false" />
    <inkscape:path-effect
       effect="fillet_chamfer"
       id="path-effect35775"
       is_visible="true"
       lpeversion="1"
       nodesatellites_param="F,0,0,1,0,0,0,1 @ F,0,0,1,0,0.86602535,0,1 @ F,0,0,1,0,0,0,1"
       unit="in"
       method="auto"
       mode="F"
       radius="0.5"
       chamfer_steps="1"
       flexible="false"
       use_knot_distance="true"
       apply_no_radius="true"
       apply_with_radius="true"
       only_selected="false"
       hide_knots="false" />
    <inkscape:path-effect
       effect="fillet_chamfer"
       id="path-effect35769"
       is_visible="true"
       lpeversion="1"
       nodesatellites_param="F,0,0,1,0,0.86602537,0,1 @ F,0,0,1,0,0.86602535,0,1 @ F,0,0,1,0,0.86602549,0,1"
       unit="in"
       method="auto"
       mode="F"
       radius="0.5"
       chamfer_steps="1"
       flexible="false"
       use_knot_distance="true"
       apply_no_radius="true"
       apply_with_radius="true"
       only_selected="false"
       hide_knots="false" />
    <inkscape:path-effect
       effect="fillet_chamfer"
       id="path-effect35763"
       is_visible="true"
       lpeversion="1"
       nodesatellites_param="F,0,0,1,0,0.86602537,0,1 @ F,0,0,1,0,0.86602535,0,1 @ F,0,0,1,0,0.86602549,0,1"
       unit="in"
       method="auto"
       mode="F"
       radius="0.5"
       chamfer_steps="1"
       flexible="false"
       use_knot_distance="true"
       apply_no_radius="true"
       apply_with_radius="true"
       only_selected="false"
       hide_knots="false" />
    <inkscape:path-effect
       effect="fillet_chamfer"
       id="path-effect35757"
       is_visible="true"
       lpeversion="1"
       nodesatellites_param="F,0,0,1,0,0.86602537,0,1 @ F,0,0,1,0,0.86602535,0,1 @ F,0,0,1,0,0.86602549,0,1"
       unit="in"
       method="auto"
       mode="F"
       radius="0.5"
       chamfer_steps="1"
       flexible="false"
       use_knot_distance="true"
       apply_no_radius="true"
       apply_with_radius="true"
       only_selected="false"
       hide_knots="false" />
    <inkscape:path-effect
       effect="fillet_chamfer"
       id="path-effect35751"
       is_visible="true"
       lpeversion="1"
       nodesatellites_param="F,0,0,1,0,0,0,1 @ F,0,0,1,0,0.86602535,0,1 @ F,0,0,1,0,0,0,1"
       unit="in"
       method="auto"
       mode="F"
       radius="0.5"
       chamfer_steps="1"
       flexible="false"
       use_knot_distance="true"
       apply_no_radius="true"
       apply_with_radius="true"
       only_selected="false"
       hide_knots="false" />
    <inkscape:path-effect
       effect="fillet_chamfer"
       id="path-effect35595"
       is_visible="true"
       lpeversion="1"
       nodesatellites_param="F,0,0,1,0,0,0,1 @ F,0,0,1,0,0.86602535,0,1 @ F,0,0,1,0,0,0,1"
       unit="in"
       method="auto"
       mode="F"
       radius="0.5"
       chamfer_steps="1"
       flexible="false"
       use_knot_distance="true"
       apply_no_radius="true"
       apply_with_radius="true"
       only_selected="false"
       hide_knots="false" />
    <inkscape:path-effect
       effect="fillet_chamfer"
       id="path-effect35567"
       is_visible="true"
       lpeversion="1"
       nodesatellites_param="F,0,0,1,0,0.5,0,1 @ F,0,0,1,0,0.5,0,1 @ F,0,0,1,0,0.5,0,1 | F,0,0,1,0,0,0,1 @ F,0,0,1,0,0.5,0,1 @ F,0,0,1,0,0,0,1 | F,0,0,1,0,0.5,0,1 @ F,0,0,1,0,0.5,0,1 @ F,0,0,1,0,0.5,0,1 | F,0,0,1,0,0.5,0,1 @ F,0,0,1,0,0.5,0,1 @ F,0,0,1,0,0.5,0,1 | F,0,0,1,0,0.5,0,1 @ F,0,0,1,0,0.5,0,1 @ F,0,0,1,0,0.5,0,1 | F,0,0,1,0,0,0,1 @ F,0,0,1,0,0.5,0,1 @ F,0,0,1,0,0.5,0,1 @ F,0,0,1,0,0,0,1"
       unit="in"
       method="auto"
       mode="F"
       radius="20"
       chamfer_steps="1"
       flexible="false"
       use_knot_distance="true"
       apply_no_radius="true"
       apply_with_radius="true"
       only_selected="false"
       hide_knots="false" />
    <inkscape:path-effect
       effect="fillet_chamfer"
       id="path-effect35534"
       is_visible="true"
       lpeversion="1"
       nodesatellites_param="F,0,0,1,0,0.5,0,1 @ F,0,0,1,0,0,0,1 @ F,0,0,1,0,0.5,0,1 @ F,0,1,1,0,0.5,0,1 @ F,0,0,1,0,0,0,1 @ F,0,0,1,0,0.5,0,1 @ F,0,0,1,0,0,0,1 @ F,0,0,1,0,0.5,0,1 @ F,0,0,1,0,0.5,0,1 @ F,0,0,1,0,0,0,1 @ F,0,0,1,0,0.5,0,1 @ F,0,0,1,0,0,0,1 @ F,0,0,1,0,0.5,0,1 @ F,0,0,1,0,0.5,0,1 @ F,0,0,1,0,0,0,1 @ F,0,0,1,0,0.5,0,1 @ F,0,0,1,0,0,0,1 @ F,0,0,1,0,0.5,0,1 @ F,0,0,1,0,0.5,0,1 @ F,0,0,1,0,0,0,1 @ F,0,0,1,0,0.5,0,1 @ F,0,0,1,0,0,0,1 @ F,0,0,1,0,0.5,0,1 @ F,0,0,1,0,0.5,0,1 @ F,0,0,1,0,0,0,1 @ F,0,0,1,0,0.5,0,1 @ F,0,1,1,0,0,0,1 @ F,0,0,1,0,0.5,0,1 @ F,0,0,1,0,0.5,0,1 @ F,0,0,1,0,0,0,1"
       unit="in"
       method="auto"
       mode="F"
       radius="0"
       chamfer_steps="1"
       flexible="false"
       use_knot_distance="true"
       apply_no_radius="true"
       apply_with_radius="true"
       only_selected="true"
       hide_knots="false" />
  </defs>
  <g
     inkscape:label="main cut"
     inkscape:groupmode="layer"
     id="layer1"
     transform="translate(-34.954126,-29.425747)">
    <path
       sodipodi:type="star"
       style="display:inline;fill:#000000;stroke:none;stroke-width:0.2;stroke-linecap:square;stop-color:#000000"
       id="path413"
       inkscape:flatsided="true"
       sodipodi:sides="6"
       sodipodi:cx="148.70851"
       sodipodi:cy="152.05261"
       sodipodi:r1="179.99998"
       sodipodi:r2="145.49226"
       sodipodi:arg1="0.52359875"
       sodipodi:arg2="1.0471976"
       inkscape:rounded="0"
       inkscape:randomized="0"
       d="m 294.20077,248.0526 -135.09995,78 a 20.784608,20.784608 180 0 1 -20.78461,0 L 3.2162609,248.05261 a 20.784613,20.784613 59.999999 0 1 -10.392307,-18 l -4e-6,-155.999985 A 20.784611,20.784611 120 0 1 3.2162551,56.052623 L 138.3162,-21.947373 a 20.784606,20.784606 180 0 1 20.78461,-1e-6 l 135.09996,77.999995 a 20.784594,20.784594 59.999999 0 1 10.3923,17.999986 l 0,156.000003 a 20.784599,20.784599 120 0 1 -10.3923,17.99999 z"
       transform="matrix(0.26458334,0,0,0.26458334,36.852789,35.969418)"
       inkscape:path-effect="#path-effect568"
       inkscape:label="main" />
    <path
       id="path355"
       style="display:none;fill:#000000;stroke-width:1.13771"
       d="M 108.18592,-8.2910178 28.511349,37.708987 a 2.0000203,2.0000203 105.00036 0 0 -0.732072,2.73206 l 11.00002,19.053094 -19.053094,11.00002 a 3.4640561,3.4640561 120.00033 0 0 -1.732062,2.99998 V 95.494142 H -4.0058594 a 2,2 135 0 0 -2,2 l 0,91.999998 a 2,2 45 0 0 2,2 H 17.994141 v 22 a 3.4640561,3.4640561 59.999674 0 0 1.732062,2.99998 l 19.053094,11.00002 -10.999949,19.05119 a 1.9999392,1.9999392 75.0008 0 0 0.732001,2.73202 l 79.674571,46 a 2.0000608,2.0000608 165.0008 0 0 2.7321,-0.73202 l 10.99995,-19.05119 19.0531,11.00002 a 3.46403,3.46403 179.99883 0 0 3.46408,-7e-5 l 19.05118,-10.99995 10.99995,19.05119 a 2.0000607,2.0000607 14.999199 0 0 2.7321,0.73202 l 79.67457,-46 a 1.9999393,1.9999393 104.9992 0 0 0.732,-2.73202 L 246.625,227.49414 265.6781,216.49412 a 3.4640558,3.4640558 120.00033 0 0 1.73206,-2.99998 v -22 h 22 a 2,2 135 0 0 2,-2 V 97.494142 a 2,2 45 0 0 -2,-2 h -22 V 73.494141 a 3.4640558,3.4640558 59.999672 0 0 -1.73206,-2.99998 L 246.625,59.494141 257.62502,40.441047 a 2.0000204,2.0000204 74.99964 0 0 -0.73207,-2.73206 L 177.21838,-8.2910178 a 1.9999796,1.9999796 164.99964 0 0 -2.73203,0.7320643 L 163.48633,11.494141 144.43515,0.49419151 a 3.4640299,3.4640299 0.00116983 0 0 -3.46408,-7.072e-5 L 121.91797,11.494141 110.91795,-7.5589535 a 1.9999796,1.9999796 15.000361 0 0 -2.73203,-0.7320643 z"
       transform="matrix(0.26458333,0,0,0.26458333,38.441839,38.233977)"
       inkscape:path-effect="#path-effect359"
       inkscape:original-d="m 109.91797,-9.2910157 -83.138673,48.0000007 12,20.785156 -20.785156,12 V 95.494142 H -6.0058594 V 191.49414 H 17.994141 v 24 l 20.785156,12 -12,20.78321 83.138673,48 12,-20.78321 20.78516,12 20.7832,-12 12,20.78321 83.13867,-48 -12,-20.78321 20.78516,-12 v -24 h 24 V 95.494142 h -24 V 71.494141 l -20.78516,-12 12,-20.785156 -83.13867,-48.0000007 -12,20.7851567 -20.7832,-12.00000038 -20.78516,12.00000038 z"
       inkscape:label="alternate" />
  </g>
  <g
     inkscape:groupmode="layer"
     id="layer3"
     inkscape:label="tab cuts"
     transform="translate(-34.954127,-29.425746)">
    <path
       id="path678"
       style="fill:#00ffff;stroke-width:0.1;stroke-linejoin:round;stop-color:#000000"
       d="m 81.872087,111.42679 1.852079,3.20791 21.997044,-12.7 -1.85208,-3.207902 z m -11.347006,0 -1.852079,3.20791 -21.99705,-12.7 1.85209,-3.207904 z m 0,-70.453573 -1.852079,-3.207904 -21.99705,12.699996 1.85209,3.207905 z m 11.347008,-10e-7 1.852085,-3.207904 21.997036,12.699996 -1.85208,3.207905 z m 27.670541,22.526793 h 3.70417 V 88.9 h -3.70417 z m -70.39226,0 h 3.704169 V 88.9 H 39.15037 Z" />
  </g>
  <g
     inkscape:groupmode="layer"
     id="layer2"
     inkscape:label="truss cuts"
     transform="translate(-34.954126,-29.425747)"
     style="display:inline">
    <path
       id="path35787"
       style="display:none;fill:#ffffff;stroke:none;stroke-width:0.198437px;stroke-linecap:butt;stroke-linejoin:miter;stroke-opacity:1"
       inkscape:path-effect="#path-effect35791"
       inkscape:original-d="M 73.448954,106.3625 V 80.962504 l -21.997045,12.7 z m 5.499262,0 V 80.962504 l 21.997044,12.7 z M 73.448954,46.037504 v 25.4 l -21.997045,-12.7 z m 8.248892,30.1625 21.997044,-12.7 v 25.4 z m -32.995568,-12.7 21.997046,12.7 -21.997046,12.7 z m 52.242982,-4.7625 -21.997044,-12.7 v 25.4 z"
       d="M 73.448954,105.49647 V 81.828529 a 0.5,0.5 30 0 0 -0.75,-0.433012 L 52.201909,93.229491 a 0.5,0.5 89.999996 0 0 0,0.866026 l 20.497045,11.833973 a 0.5,0.5 150 0 0 0.75,-0.43302 z m 5.499262,0 V 81.828529 a 0.5,0.5 150 0 1 0.75,-0.433012 l 20.497044,11.833974 a 0.5,0.5 90.000004 0 1 0,0.866026 L 79.698216,105.92949 a 0.5,0.5 30.000003 0 1 -0.75,-0.43302 z M 73.448954,46.903529 v 23.66795 a 0.5,0.5 150 0 1 -0.75,0.433012 L 52.201909,59.170517 a 0.5,0.5 90 0 1 0,-0.866026 L 72.698954,46.470517 a 0.5,0.5 30 0 1 0.75,0.433012 z m 8.998892,28.863462 20.497044,-11.833974 a 0.5,0.5 29.999999 0 1 0.75,0.433012 v 23.66795 a 0.5,0.5 150 0 1 -0.75,0.433012 L 82.447846,76.633017 a 0.5,0.5 90 0 1 0,-0.866026 z M 49.452278,63.933017 69.949324,75.766991 a 0.5,0.5 90 0 1 0,0.866026 L 49.452278,88.466991 a 0.5,0.5 30 0 1 -0.75,-0.433012 l 0,-23.66795 a 0.5,0.5 150 0 1 0.75,-0.433012 z M 100.19526,58.304491 79.698216,46.470517 a 0.5,0.5 150 0 0 -0.75,0.433012 v 23.66795 a 0.5,0.5 29.999999 0 0 0.75,0.433012 L 100.19526,59.170517 a 0.5,0.5 90 0 0 0,-0.866026 z"
       sodipodi:nodetypes="cccccccccccccccccccccccc"
       inkscape:label="alternate" />
    <path
       id="path742"
       style="display:inline;fill:#ffffff;stroke:none;stroke-width:0.208359px;stroke-linecap:butt;stroke-linejoin:miter;stroke-opacity:1"
       inkscape:path-effect="#path-effect746"
       inkscape:original-d="M 73.311473,107.87062 V 81.200629 l -23.096898,13.335 z m 5.774225,0 V 81.200629 l 23.096892,13.335 z M 73.311473,44.529379 v 26.67 l -23.096898,-13.335 z m 8.661336,31.670625 23.096901,-13.335 v 26.67 z m -34.645346,-13.335 23.096898,13.335 -23.096898,13.335 z m 54.855127,-5.000625 -23.096892,-13.335 v 26.67 z"
       d="M 73.311473,107.00459 V 82.066654 a 0.50000001,0.50000001 30 0 0 -0.75,-0.433012 L 50.964575,94.102616 a 0.49999989,0.49999989 89.999992 0 0 0,0.866026 l 21.596898,12.468968 a 0.5000001,0.5000001 149.99999 0 0 0.75,-0.43302 z m 5.774225,0 V 82.066654 a 0.49999996,0.49999996 150 0 1 0.75,-0.433012 l 21.596892,12.468974 a 0.5,0.5 90.000008 0 1 0,0.866026 L 79.835698,107.43761 a 0.50000004,0.50000004 30.000005 0 1 -0.75,-0.43302 z M 73.311473,45.395404 v 24.93795 a 0.50000001,0.50000001 150 0 1 -0.75,0.433012 L 50.964575,58.297392 a 0.49999998,0.49999998 90 0 1 0,-0.866026 L 72.561473,44.962392 a 0.50000001,0.50000001 30 0 1 0.75,0.433012 z m 9.411336,30.371587 21.596901,-12.468974 a 0.50000005,0.50000005 30.000002 0 1 0.75,0.433012 v 24.93795 a 0.50000005,0.50000005 150 0 1 -0.75,0.433012 L 82.722809,76.633017 a 0.49999989,0.49999989 90 0 1 0,-0.866026 z M 48.077463,63.298017 69.674361,75.766991 a 0.5,0.5 90 0 1 0,0.866026 L 48.077463,89.101991 a 0.5,0.5 30 0 1 -0.75,-0.433012 v -24.93795 a 0.5,0.5 150 0 1 0.75,-0.433012 z M 101.43259,57.431366 79.835698,44.962392 a 0.49999996,0.49999996 150 0 0 -0.75,0.433012 v 24.93795 a 0.49999996,0.49999996 29.999997 0 0 0.75,0.433012 L 101.43259,58.297392 a 0.50000009,0.50000009 90 0 0 0,-0.866026 z"
       sodipodi:nodetypes="cccccccccccccccccccccccc"
       sodipodi:insensitive="true"
       inkscape:label="main" />
  </g>
  <g
     inkscape:groupmode="layer"
     id="layer6"
     inkscape:label="hole"
     transform="translate(-9.0983397,-3.8917704)"
     style="display:inline">
    <path
       id="path33464"
       style="fill:#ffff00;stroke-width:0.107;stroke-linejoin:round"
       d="m 50.343461,53.112048 c -1.350732,2.35e-4 -2.445975,-1.094433 -2.446447,-2.445166 -4.71e-4,-1.350733 1.094007,-2.446167 2.44474,-2.446874 1.350732,-7.07e-4 2.446357,1.09358 2.446829,2.445166 4.71e-4,1.351587 -1.094389,2.446639 -2.445122,2.446874 z"
       sodipodi:nodetypes="ssscs" />
  </g>
</svg>
