<?xml version="1.0" encoding="UTF-8" standalone="no"?>
<!-- Created with Inkscape (http://www.inkscape.org/) -->

<svg
   width="2.8229592in"
   height="10.104167in"
   viewBox="0 0 71.703163 256.64584"
   version="1.1"
   id="svg5"
   inkscape:version="1.2.1 (9c6d41e410, 2022-07-14)"
   sodipodi:docname="windmillside2mirror.svg"
   xmlns:inkscape="http://www.inkscape.org/namespaces/inkscape"
   xmlns:sodipodi="http://sodipodi.sourceforge.net/DTD/sodipodi-0.dtd"
   xmlns="http://www.w3.org/2000/svg"
   xmlns:svg="http://www.w3.org/2000/svg">
  <sodipodi:namedview
     id="namedview7"
     pagecolor="#505050"
     bordercolor="#ffffff"
     borderopacity="1"
     inkscape:showpageshadow="0"
     inkscape:pageopacity="0"
     inkscape:pagecheckerboard="1"
     inkscape:deskcolor="#505050"
     inkscape:document-units="mm"
     showgrid="true"
     inkscape:zoom="0.70710678"
     inkscape:cx="-53.033009"
     inkscape:cy="551.54329"
     inkscape:window-width="1920"
     inkscape:window-height="1057"
     inkscape:window-x="1592"
     inkscape:window-y="-8"
     inkscape:window-maximized="1"
     inkscape:current-layer="layer6"
     showguides="true">
    <inkscape:grid
       type="xygrid"
       id="grid1775"
       units="in"
       spacingx="6.35"
       spacingy="6.35"
       empspacing="4"
       color="#ffffff"
       opacity="0.1254902"
       empcolor="#ffffff"
       empopacity="0.25098039"
       originx="-3.2006753"
       originy="6.6980081e-13"
       enabled="true" />
    <inkscape:grid
       type="xygrid"
       id="grid2503"
       color="#4fff3f"
       opacity="0.1254902"
       empcolor="#3fff47"
       empopacity="0.13333333"
       empspacing="1"
       units="in"
       spacingx="6.35"
       spacingy="6.35"
       originy="3.1750001"
       originx="-0.025675401"
       enabled="true" />
    <inkscape:grid
       type="xygrid"
       id="grid9404"
       color="#ff3f3f"
       opacity="0.1254902"
       empcolor="#ff3f3f"
       empopacity="0.1254902"
       spacingx="3.175"
       spacingy="3.175"
       empspacing="1"
       originy="1.5875"
       originx="-1.6131753"
       enabled="true"
       units="in" />
  </sodipodi:namedview>
  <defs
     id="defs2">
    <inkscape:path-effect
       effect="perspective-envelope"
       up_left_point="26.9875,6.6980079e-13"
       up_right_point="52.3875,6.6980079e-13"
       down_left_point="19.05,254"
       down_right_point="60.325,254"
       id="path-effect1442"
       is_visible="true"
       lpeversion="1"
       deform_type="envelope_deformation"
       horizontal_mirror="false"
       vertical_mirror="false"
       overflow_perspective="false" />
    <inkscape:path-effect
       effect="fillet_chamfer"
       id="path-effect1251"
       is_visible="true"
       lpeversion="1"
       nodesatellites_param="F,0,1,1,0,0.47562074,0,1 @ F,0,0,1,0,0,0,1 @ F,0,0,1,0,0.47563041,0,1 @ F,0,0,1,0,0.5256182,0,1 @ F,0,0,1,0,0,0,1 @ F,0,0,1,0,0,0,1 @ F,0,0,1,0,0.47563041,0,1 @ F,0,0,1,0,0.5256182,0,1 @ F,0,0,1,0,0,0,1 @ F,0,0,1,0,0,0,1 @ F,0,0,1,0,0.47562074,0,1 @ F,0,0,1,0,0.52562888,0,1 @ F,0,0,1,0,0,0,1 @ F,0,0,1,0,0,0,1 @ F,0,0,1,0,0.47562074,0,1 @ F,0,0,1,0,0.52562888,0,1 @ F,0,0,1,0,0,0,1 @ F,0,0,1,0,0,0,1 @ F,0,0,1,0,0.47562074,0,1 @ F,0,0,1,0,0.52562888,0,1 @ F,0,0,1,0,0,0,1 @ F,0,0,1,0,0.508,0,1 @ F,0,0,1,0,0.508,0,1 @ F,0,0,1,0,0,0,1 @ F,0,0,1,0,0.52509337,0,1 @ F,0,0,1,0,0,0,1 @ F,0,0,1,0,0.52676033,0,1 @ F,0,0,1,0,0.47459914,0,1 @ F,0,0,1,0,0,0,1 @ F,0,0,1,0,0,0,1 @ F,0,0,1,0,0.52676033,0,1 @ F,0,0,1,0,0.47459914,0,1 @ F,0,0,1,0,0,0,1 @ F,0,0,1,0,0.025154955,0,1 @ F,0,0,1,0,0.5267715,0,1 @ F,0,0,1,0,0.5,0,1 @ F,0,0,1,0,0,0,1 @ F,0,0,1,0,0,0,1 @ F,0,0,1,0,0.52677148,0,1 @ F,0,0,1,0,0.4745891,0,1 @ F,0,0,1,0,0,0,1 @ F,0,0,1,0,0,0,1 @ F,0,0,1,0,0.52618774,0,1 @ F,0,1,1,0,0.47511559,0,1 @ F,0,1,1,0,0,0,1 @ F,0,1,1,0,0.508,0,1 @ F,0,1,1,0,0.508,0,1 @ F,0,1,1,0,0,0,1"
       unit="in"
       method="auto"
       mode="F"
       radius="0.02"
       chamfer_steps="1"
       flexible="false"
       use_knot_distance="true"
       apply_no_radius="true"
       apply_with_radius="true"
       only_selected="true"
       hide_knots="false" />
    <inkscape:path-effect
       effect="fillet_chamfer"
       id="path-effect516"
       is_visible="true"
       lpeversion="1"
       nodesatellites_param="F,0,0,1,0,0.508,0,1 @ F,0,0,1,0,0.508,0,1 @ F,0,0,1,0,0.508,0,1 @ F,0,0,1,0,0.508,0,1"
       unit="in"
       method="auto"
       mode="F"
       radius="0.02"
       chamfer_steps="1"
       flexible="false"
       use_knot_distance="true"
       apply_no_radius="true"
       apply_with_radius="true"
       only_selected="false"
       hide_knots="false" />
    <inkscape:path-effect
       effect="perspective-envelope"
       up_left_point="26.964371,0"
       up_right_point="52.364371,0"
       down_left_point="19.024369,254"
       down_right_point="60.299371,254"
       id="path-effect513"
       is_visible="true"
       lpeversion="1"
       deform_type="envelope_deformation"
       horizontal_mirror="false"
       vertical_mirror="false"
       overflow_perspective="false" />
    <inkscape:path-effect
       effect="fillet_chamfer"
       id="path-effect5174"
       is_visible="true"
       lpeversion="1"
       nodesatellites_param="F,0,0,1,0,0.508,0,1 @ F,0,0,1,0,0.508,0,1 @ F,0,0,1,0,0.508,0,1 | F,0,0,1,0,0.508,0,1 @ F,0,0,1,0,0.508,0,1 @ F,0,0,1,0,0.508,0,1"
       unit="in"
       method="auto"
       mode="F"
       radius="0.02"
       chamfer_steps="1"
       flexible="false"
       use_knot_distance="true"
       apply_no_radius="true"
       apply_with_radius="true"
       only_selected="false"
       hide_knots="false" />
    <inkscape:path-effect
       effect="fillet_chamfer"
       id="path-effect4422"
       is_visible="true"
       lpeversion="1"
       nodesatellites_param="F,0,0,1,0,0.47562074,0,1 @ F,0,0,1,0,0,0,1 @ F,0,0,1,0,0.47563041,0,1 @ F,0,0,1,0,0.5256182,0,1 @ F,0,0,1,0,0,0,1 @ F,0,0,1,0,0,0,1 @ F,0,0,1,0,0.47563041,0,1 @ F,0,0,1,0,0.5256182,0,1 @ F,0,0,1,0,0,0,1 @ F,0,0,1,0,0,0,1 @ F,0,0,1,0,0.47562074,0,1 @ F,0,0,1,0,0.52562888,0,1 @ F,0,0,1,0,0,0,1 @ F,0,0,1,0,0,0,1 @ F,0,0,1,0,0.47562074,0,1 @ F,0,0,1,0,0.52562888,0,1 @ F,0,0,1,0,0,0,1 @ F,0,0,1,0,0,0,1 @ F,0,0,1,0,0.47562074,0,1 @ F,0,0,1,0,0.52562888,0,1 @ F,0,0,1,0,0,0,1 @ F,0,1,1,0,0.508,0,1 @ F,0,1,1,0,0.508,0,1 @ F,0,0,1,0,0,0,1 @ F,0,0,1,0,0.52509337,0,1 @ F,0,0,1,0,0,0,1 @ F,0,0,1,0,0.52676033,0,1 @ F,0,0,1,0,0.47459914,0,1 @ F,0,0,1,0,0,0,1 @ F,0,0,1,0,0,0,1 @ F,0,0,1,0,0.52676033,0,1 @ F,0,0,1,0,0.47459914,0,1 @ F,0,0,1,0,0,0,1 @ F,0,0,1,0,0.025154955,0,1 @ F,0,0,1,0,0.5267715,0,1 @ F,0,0,1,0,0.5,0,1 @ F,0,0,1,0,0,0,1 @ F,0,0,1,0,0,0,1 @ F,0,0,1,0,0.52677148,0,1 @ F,0,0,1,0,0.4745891,0,1 @ F,0,0,1,0,0,0,1 @ F,0,0,1,0,0,0,1 @ F,0,0,1,0,0.52618774,0,1 @ F,0,0,1,0,0.47511559,0,1 @ F,0,0,1,0,0.5,0,1 @ F,0,0,1,0,0,0,1 @ F,0,0,1,0,0,0,1 @ F,0,0,1,0,0.5,0,1"
       unit="in"
       method="auto"
       mode="F"
       radius="0.02"
       chamfer_steps="1"
       flexible="false"
       use_knot_distance="true"
       apply_no_radius="true"
       apply_with_radius="true"
       only_selected="true"
       hide_knots="false" />
    <inkscape:path-effect
       effect="fillet_chamfer"
       id="path-effect4052"
       is_visible="true"
       lpeversion="1"
       nodesatellites_param="F,0,0,1,0,0.47562074,0,1 @ F,0,0,1,0,0,0,1 @ F,0,0,1,0,0.47563041,0,1 @ F,0,0,1,0,0.5256182,0,1 @ F,0,0,1,0,0,0,1 @ F,0,0,1,0,0,0,1 @ F,0,0,1,0,0.47563041,0,1 @ F,0,0,1,0,0.5256182,0,1 @ F,0,0,1,0,0,0,1 @ F,0,0,1,0,0,0,1 @ F,0,0,1,0,0.47562074,0,1 @ F,0,0,1,0,0.52562888,0,1 @ F,0,0,1,0,0,0,1 @ F,0,0,1,0,0,0,1 @ F,0,0,1,0,0.47562074,0,1 @ F,0,0,1,0,0.52562888,0,1 @ F,0,0,1,0,0,0,1 @ F,0,0,1,0,0,0,1 @ F,0,0,1,0,0.47562074,0,1 @ F,0,0,1,0,0.52562888,0,1 @ F,0,0,1,0,0,0,1 @ F,0,1,1,0,0.508,0,1 @ F,0,1,1,0,0.508,0,1 @ F,0,0,1,0,0,0,1 @ F,0,0,1,0,0.52509337,0,1 @ F,0,0,1,0,0,0,1 @ F,0,0,1,0,0.52676033,0,1 @ F,0,0,1,0,0.47459914,0,1 @ F,0,0,1,0,0,0,1 @ F,0,0,1,0,0,0,1 @ F,0,0,1,0,0.52676033,0,1 @ F,0,0,1,0,0.47459914,0,1 @ F,0,0,1,0,0,0,1 @ F,0,0,1,0,0.025154955,0,1 @ F,0,0,1,0,0.5267715,0,1 @ F,0,0,1,0,0.5,0,1 @ F,0,0,1,0,0,0,1 @ F,0,0,1,0,0,0,1 @ F,0,0,1,0,0.52677148,0,1 @ F,0,0,1,0,0.4745891,0,1 @ F,0,0,1,0,0,0,1 @ F,0,0,1,0,0,0,1 @ F,0,0,1,0,0.52618774,0,1 @ F,0,0,1,0,0.47511559,0,1 @ F,0,0,1,0,0.5,0,1 @ F,0,0,1,0,0,0,1 @ F,0,0,1,0,0,0,1 @ F,0,0,1,0,0.5,0,1"
       unit="in"
       method="auto"
       mode="F"
       radius="0.02"
       chamfer_steps="1"
       flexible="false"
       use_knot_distance="true"
       apply_no_radius="true"
       apply_with_radius="true"
       only_selected="true"
       hide_knots="false" />
    <inkscape:path-effect
       effect="fillet_chamfer"
       id="path-effect3146"
       is_visible="true"
       lpeversion="1"
       nodesatellites_param="F,0,0,1,0,0.47562074,0,1 @ F,0,1,1,0,0,0,1 @ F,0,1,1,0,0.47563041,0,1 @ F,0,1,1,0,0.5256182,0,1 @ F,0,1,1,0,0,0,1 @ F,0,1,1,0,0,0,1 @ F,0,1,1,0,0.47563041,0,1 @ F,0,1,1,0,0.5256182,0,1 @ F,0,1,1,0,0,0,1 @ F,0,1,1,0,0,0,1 @ F,0,1,1,0,0.47562074,0,1 @ F,0,1,1,0,0.52562888,0,1 @ F,0,1,1,0,0,0,1 @ F,0,1,1,0,0,0,1 @ F,0,1,1,0,0.47562074,0,1 @ F,0,1,1,0,0.52562888,0,1 @ F,0,1,1,0,0,0,1 @ F,0,1,1,0,0,0,1 @ F,0,1,1,0,0.47562074,0,1 @ F,0,0,1,0,0.52562888,0,1 @ F,0,0,1,0,0,0,1 @ F,0,1,1,0,0.508,0,1 @ F,0,1,1,0,0.508,0,1 @ F,0,0,1,0,0,0,1 @ F,0,0,1,0,0.52509337,0,1 @ F,0,1,1,0,0,0,1 @ F,0,1,1,0,0.52676033,0,1 @ F,0,1,1,0,0.47459914,0,1 @ F,0,1,1,0,0,0,1 @ F,0,1,1,0,0,0,1 @ F,0,1,1,0,0.52676033,0,1 @ F,0,1,1,0,0.47459914,0,1 @ F,0,1,1,0,0,0,1 @ F,0,1,1,0,0.025154955,0,1 @ F,0,1,1,0,0.5267715,0,1 @ F,0,1,1,0,0.5,0,1 @ F,0,1,1,0,0,0,1 @ F,0,1,1,0,0,0,1 @ F,0,1,1,0,0.52677148,0,1 @ F,0,1,1,0,0.4745891,0,1 @ F,0,1,1,0,0,0,1 @ F,0,1,1,0,0,0,1 @ F,0,1,1,0,0.52618774,0,1 @ F,0,0,1,0,0.47511559,0,1 @ F,0,0,1,0,0.5,0,1 @ F,0,0,1,0,0,0,1 @ F,0,0,1,0,0,0,1 @ F,0,0,1,0,0.5,0,1"
       unit="in"
       method="auto"
       mode="F"
       radius="0.02"
       chamfer_steps="1"
       flexible="false"
       use_knot_distance="true"
       apply_no_radius="true"
       apply_with_radius="true"
       only_selected="true"
       hide_knots="false" />
    <inkscape:path-effect
       effect="fillet_chamfer"
       id="path-effect4174"
       is_visible="true"
       lpeversion="1"
       nodesatellites_param="F,0,0,1,0,0.508,0,1 @ F,0,0,1,0,0.508,0,1 @ F,0,0,1,0,0.508,0,1 | F,0,0,1,0,0.508,0,1 @ F,0,0,1,0,0.508,0,1 @ F,0,1,1,0,0.508,0,1 | F,0,0,1,0,0.508,0,1 @ F,0,0,1,0,0.508,0,1 @ F,0,0,1,0,0.508,0,1 | F,0,0,1,0,0.508,0,1 @ F,0,0,1,0,0.508,0,1 @ F,0,0,1,0,0.508,0,1 | F,0,0,1,0,0.508,0,1 @ F,0,0,1,0,0.508,0,1 @ F,0,0,1,0,0.508,0,1 | F,0,0,1,0,0.508,0,1 @ F,0,0,1,0,0.508,0,1 @ F,0,0,1,0,0.508,0,1 | F,0,0,1,0,0.508,0,1 @ F,0,0,1,0,0.508,0,1 @ F,0,0,1,0,0.508,0,1 | F,0,0,1,0,0.508,0,1 @ F,0,0,1,0,0.508,0,1 @ F,0,0,1,0,0.508,0,1 | F,0,0,1,0,0.508,0,1 @ F,0,0,1,0,0.508,0,1 @ F,0,0,1,0,0.508,0,1 | F,0,0,1,0,0.508,0,1 @ F,0,0,1,0,0.508,0,1 @ F,0,0,1,0,0.508,0,1 | F,0,0,1,0,0.508,0,1 @ F,0,0,1,0,0.508,0,1 @ F,0,0,1,0,0.508,0,1 | F,0,0,1,0,0.508,0,1 @ F,0,0,1,0,0.508,0,1 @ F,0,0,1,0,0.508,0,1"
       unit="in"
       method="auto"
       mode="F"
       radius="0.02"
       chamfer_steps="1"
       flexible="false"
       use_knot_distance="true"
       apply_no_radius="true"
       apply_with_radius="true"
       only_selected="true"
       hide_knots="false" />
    <inkscape:path-effect
       effect="fillet_chamfer"
       id="path-effect4172"
       is_visible="true"
       lpeversion="1"
       nodesatellites_param="F,0,0,1,0,0.508,0,1 @ F,0,0,1,0,0.508,0,1 @ F,0,0,1,0,0.508,0,1 @ F,0,1,1,0,0,0,1 @ F,0,1,1,0,0,0,1 @ F,0,0,1,0,0.508,0,1 @ F,0,0,1,0,0.508,0,1 | F,0,0,1,0,0.508,0,1 @ F,0,0,1,0,0.508,0,1 @ F,0,0,1,0,0.508,0,1 @ F,0,1,1,0,0,0,1 @ F,0,1,1,0,0,0,1 @ F,0,0,1,0,0.508,0,1 @ F,0,0,1,0,0.508,0,1 | F,0,0,1,0,0.508,0,1 @ F,0,0,1,0,0.508,0,1 @ F,0,0,1,0,0.508,0,1 @ F,0,1,1,0,0,0,1 @ F,0,1,1,0,0,0,1 @ F,0,0,1,0,0.508,0,1 @ F,0,0,1,0,0.508,0,1 | F,0,0,1,0,0.508,0,1 @ F,0,0,1,0,0.508,0,1 @ F,0,0,1,0,0.508,0,1 @ F,0,1,1,0,0,0,1 @ F,0,1,1,0,0,0,1 @ F,0,0,1,0,0.508,0,1 @ F,0,0,1,0,0.508,0,1"
       unit="in"
       method="auto"
       mode="F"
       radius="0"
       chamfer_steps="1"
       flexible="false"
       use_knot_distance="true"
       apply_no_radius="true"
       apply_with_radius="true"
       only_selected="true"
       hide_knots="false" />
    <inkscape:path-effect
       effect="perspective-envelope"
       up_left_point="26.99,0"
       up_right_point="52.39,0"
       down_left_point="19.049998,254"
       down_right_point="60.325,254"
       id="path-effect4085"
       is_visible="true"
       lpeversion="1"
       deform_type="envelope_deformation"
       horizontal_mirror="false"
       vertical_mirror="false"
       overflow_perspective="false" />
    <inkscape:path-effect
       effect="perspective-envelope"
       up_left_point="26.99,0"
       up_right_point="52.39,0"
       down_left_point="19.049998,254"
       down_right_point="60.325,254"
       id="path-effect4075"
       is_visible="true"
       lpeversion="1"
       deform_type="envelope_deformation"
       horizontal_mirror="false"
       vertical_mirror="false"
       overflow_perspective="false" />
    <inkscape:path-effect
       effect="perspective-envelope"
       up_left_point="3.17,0"
       up_right_point="63.68,0"
       down_left_point="3.175,254.00001"
       down_right_point="76.200001,254.00001"
       id="path-effect4065"
       is_visible="true"
       lpeversion="1"
       deform_type="envelope_deformation"
       horizontal_mirror="false"
       vertical_mirror="false"
       overflow_perspective="false" />
    <inkscape:path-effect
       effect="fillet_chamfer"
       id="path-effect35513"
       is_visible="true"
       lpeversion="1"
       nodesatellites_param="F,0,1,1,0,0.5,0,1 @ F,0,1,1,0,0.5,0,1 @ F,0,1,1,0,0.5,0,1 @ F,0,0,1,0,0,0,1 @ F,0,0,1,0,0,0,1 @ F,0,1,1,0,0.5,0,1 @ F,0,1,1,0,0.5,0,1 | F,0,1,1,0,0.5,0,1 @ F,0,1,1,0,0.5,0,1 @ F,0,1,1,0,0.5,0,1 @ F,0,0,1,0,0,0,1 @ F,0,0,1,0,0,0,1 @ F,0,1,1,0,0.5,0,1 @ F,0,1,1,0,0.5,0,1 | F,0,1,1,0,0.5,0,1 @ F,0,1,1,0,0.5,0,1 @ F,0,1,1,0,0.5,0,1 @ F,0,0,1,0,0,0,1 @ F,0,0,1,0,0,0,1 @ F,0,1,1,0,0.5,0,1 @ F,0,1,1,0,0.5,0,1 | F,0,1,1,0,0.5,0,1 @ F,0,1,1,0,0.5,0,1 @ F,0,1,1,0,0.5,0,1 @ F,0,0,1,0,0,0,1 @ F,0,0,1,0,0,0,1 @ F,0,1,1,0,0.5,0,1 @ F,0,1,1,0,0.5,0,1"
       unit="in"
       method="auto"
       mode="F"
       radius="0.5"
       chamfer_steps="1"
       flexible="false"
       use_knot_distance="true"
       apply_no_radius="true"
       apply_with_radius="true"
       only_selected="true"
       hide_knots="false" />
    <inkscape:path-effect
       effect="fillet_chamfer"
       id="path-effect35511"
       is_visible="true"
       lpeversion="1"
       nodesatellites_param="F,0,0,1,0,0.5,0,1 @ F,0,0,1,0,0.5,0,1 @ F,0,0,1,0,0.5,0,1 | F,0,0,1,0,0.5,0,1 @ F,0,0,1,0,0.5,0,1 @ F,0,0,1,0,0.5,0,1 | F,0,0,1,0,0.5,0,1 @ F,0,0,1,0,0.5,0,1 @ F,0,0,1,0,0.5,0,1 | F,0,0,1,0,0.5,0,1 @ F,0,0,1,0,0.5,0,1 @ F,0,0,1,0,0.5,0,1 | F,0,0,1,0,0.5,0,1 @ F,0,0,1,0,0.5,0,1 @ F,0,0,1,0,0.5,0,1 | F,0,0,1,0,0.5,0,1 @ F,0,0,1,0,0.5,0,1 @ F,0,0,1,0,0.5,0,1 | F,0,0,1,0,0.5,0,1 @ F,0,0,1,0,0.5,0,1 @ F,0,0,1,0,0.5,0,1 | F,0,0,1,0,0.5,0,1 @ F,0,0,1,0,0.5,0,1 @ F,0,0,1,0,0.5,0,1 | F,0,0,1,0,0.5,0,1 @ F,0,0,1,0,0.5,0,1 @ F,0,0,1,0,0.5,0,1 | F,0,0,1,0,0.5,0,1 @ F,0,0,1,0,0.5,0,1 @ F,0,0,1,0,0.5,0,1 | F,0,0,1,0,0.5,0,1 @ F,0,0,1,0,0.5,0,1 @ F,0,0,1,0,0.5,0,1 | F,0,0,1,0,0.5,0,1 @ F,0,0,1,0,0.5,0,1 @ F,0,0,1,0,0.5,0,1 | F,0,0,1,0,0.5,0,1 @ F,0,0,1,0,0.5,0,1 @ F,0,0,1,0,0.5,0,1 | F,0,0,1,0,0.5,0,1 @ F,0,0,1,0,0.5,0,1 @ F,0,0,1,0,0.5,0,1 | F,0,0,1,0,0.5,0,1 @ F,0,0,1,0,0.5,0,1 @ F,0,0,1,0,0.5,0,1 | F,0,0,1,0,0.5,0,1 @ F,0,0,1,0,0.5,0,1 @ F,0,0,1,0,0.5,0,1 | F,0,0,1,0,0.5,0,1 @ F,0,0,1,0,0.5,0,1 @ F,0,0,1,0,0.5,0,1 | F,0,0,1,0,0.5,0,1 @ F,0,0,1,0,0.5,0,1 @ F,0,0,1,0,0.5,0,1 | F,0,0,1,0,0.5,0,1 @ F,0,0,1,0,0.5,0,1 @ F,0,0,1,0,0.5,0,1 | F,0,0,1,0,0.5,0,1 @ F,0,0,1,0,0.5,0,1 @ F,0,0,1,0,0.5,0,1 | F,0,0,1,0,0.5,0,1 @ F,0,0,1,0,0.5,0,1 @ F,0,0,1,0,0.5,0,1 | F,0,0,1,0,0.5,0,1 @ F,0,0,1,0,0.5,0,1 @ F,0,0,1,0,0.5,0,1 | F,0,0,1,0,0.5,0,1 @ F,0,0,1,0,0.5,0,1 @ F,0,0,1,0,0.5,0,1 | F,0,0,1,0,0.5,0,1 @ F,0,0,1,0,0.5,0,1 @ F,0,0,1,0,0.5,0,1"
       unit="in"
       method="auto"
       mode="F"
       radius="0.5"
       chamfer_steps="1"
       flexible="false"
       use_knot_distance="true"
       apply_no_radius="true"
       apply_with_radius="true"
       only_selected="false"
       hide_knots="false" />
    <inkscape:path-effect
       effect="fillet_chamfer"
       id="path-effect35509"
       is_visible="true"
       lpeversion="1"
       nodesatellites_param="F,0,0,1,0,0.47562074,0,1 @ F,0,0,1,0,0,0,1 @ F,0,0,1,0,0.47563041,0,1 @ F,0,0,1,0,0.5256182,0,1 @ F,0,0,1,0,0,0,1 @ F,0,0,1,0,0,0,1 @ F,0,0,1,0,0.47563041,0,1 @ F,0,0,1,0,0.5256182,0,1 @ F,0,0,1,0,0,0,1 @ F,0,0,1,0,0,0,1 @ F,0,0,1,0,0.47562074,0,1 @ F,0,0,1,0,0.52562888,0,1 @ F,0,0,1,0,0,0,1 @ F,0,0,1,0,0,0,1 @ F,0,0,1,0,0.47562074,0,1 @ F,0,0,1,0,0.52562888,0,1 @ F,0,0,1,0,0,0,1 @ F,0,0,1,0,0,0,1 @ F,0,0,1,0,0.47562074,0,1 @ F,0,0,1,0,0.52562888,0,1 @ F,0,0,1,0,0.5,0,1 @ F,0,0,1,0,0,0,1 @ F,0,0,1,0,0,0,1 @ F,0,0,1,0,0.5,0,1 @ F,0,0,1,0,0.52509337,0,1 @ F,0,0,1,0,0,0,1 @ F,0,0,1,0,0.52676033,0,1 @ F,0,0,1,0,0.47459914,0,1 @ F,0,0,1,0,0,0,1 @ F,0,0,1,0,0,0,1 @ F,0,0,1,0,0.52676033,0,1 @ F,0,0,1,0,0.47459914,0,1 @ F,0,0,1,0,0,0,1 @ F,0,0,1,0,0.025154955,0,1 @ F,0,0,1,0,0.5267715,0,1 @ F,0,1,1,0,0.5,0,1 @ F,0,0,1,0,0,0,1 @ F,0,0,1,0,0,0,1 @ F,0,0,1,0,0.52677148,0,1 @ F,0,0,1,0,0.4745891,0,1 @ F,0,0,1,0,0,0,1 @ F,0,0,1,0,0,0,1 @ F,0,0,1,0,0.52618774,0,1 @ F,0,0,1,0,0.47511559,0,1 @ F,0,0,1,0,0.5,0,1 @ F,0,0,1,0,0,0,1 @ F,0,0,1,0,0,0,1 @ F,0,0,1,0,0.5,0,1"
       unit="in"
       method="auto"
       mode="F"
       radius="0.5"
       chamfer_steps="1"
       flexible="false"
       use_knot_distance="true"
       apply_no_radius="true"
       apply_with_radius="true"
       only_selected="true"
       hide_knots="false" />
    <inkscape:path-effect
       effect="perspective-envelope"
       up_left_point="15.88,0"
       up_right_point="63.52,0"
       down_left_point="0,254"
       down_right_point="79.374998,254"
       id="path-effect35394"
       is_visible="true"
       lpeversion="1"
       deform_type="envelope_deformation"
       horizontal_mirror="false"
       vertical_mirror="false"
       overflow_perspective="false" />
    <inkscape:path-effect
       effect="perspective-envelope"
       up_left_point="0,0"
       up_right_point="79.374997,0"
       down_left_point="0,254"
       down_right_point="79.374997,254"
       id="path-effect35354"
       is_visible="true"
       lpeversion="1"
       deform_type="envelope_deformation"
       horizontal_mirror="false"
       vertical_mirror="false"
       overflow_perspective="false" />
    <inkscape:path-effect
       effect="perspective-envelope"
       up_left_point="12.7,0"
       up_right_point="66.68,0"
       down_left_point="0,254"
       down_right_point="79.375,254"
       id="path-effect9346"
       is_visible="true"
       lpeversion="1"
       deform_type="envelope_deformation"
       horizontal_mirror="false"
       vertical_mirror="false"
       overflow_perspective="false" />
    <inkscape:path-effect
       effect="perspective-envelope"
       up_left_point="26.990054,0"
       up_right_point="52.390054,0"
       down_left_point="19.050052,254"
       down_right_point="60.325054,254"
       id="path-effect4939"
       is_visible="true"
       lpeversion="1"
       deform_type="envelope_deformation"
       horizontal_mirror="false"
       vertical_mirror="false"
       overflow_perspective="false" />
  </defs>
  <g
     inkscape:groupmode="layer"
     id="layer6"
     inkscape:label="main cut"
     transform="translate(-3.1750464)">
    <path
       id="path3142"
       style="display:none;fill:#000000;stroke-width:0.1;stroke-linejoin:round"
       d="M 22.201289,0.47502933 20.954793,25.447259 h -5.87437 a 0.50028245,0.50028245 136.44701 0 0 -0.499644,0.475024 l -1.219138,24.115928 a 0.49971771,0.49971771 46.447012 0 0 0.49908,0.524948 h 5.824382 l -1.270206,25.6841 h -5.87437 a 0.50028244,0.50028244 136.44701 0 0 -0.499644,0.475024 l -1.219138,24.115927 a 0.49971771,0.49971771 46.447012 0 0 0.49908,0.52495 h 5.824382 L 15.875,127.04726 h -5.874379 a 0.50028255,0.50028255 136.4476 0 0 -0.4996442,0.47501 L 8.2813424,151.6382 a 0.4997176,0.4997176 46.4476 0 0 0.4990798,0.52496 h 5.8243708 l -1.26969,25.6841 H 7.4607241 a 0.50028256,0.50028256 136.4476 0 0 -0.499644,0.47501 L 5.7414457,202.4382 a 0.4997176,0.4997176 46.4476 0 0 0.4990798,0.52496 h 5.8243715 l -1.26969,25.6841 H 4.9208274 a 0.50004655,0.50004655 136.4341 0 0 -0.4994201,0.47502 L 3.2013017,253.47503 A 0.49995345,0.49995345 46.434099 0 0 3.7006289,254 H 26.9875 v 2.13783 a 0.508,0.508 45 0 0 0.508,0.508 h 24.384 a 0.508,0.508 135 0 0 0.508,-0.508 V 254 h 16.937407 a 0.49972112,0.49972112 133.58177 0 0 0.499109,-0.52445 l -1.244223,-25.11239 h 5.82324 a 0.50080356,0.50080356 133.55299 0 0 0.500165,-0.52609 l -1.219133,-24.11582 a 0.49919772,0.49919772 43.552988 0 0 -0.498561,-0.47399 h -5.875401 l -1.270206,-25.6841 h 5.82324 a 0.50080356,0.50080356 133.55299 0 0 0.500165,-0.52609 l -1.219133,-24.11582 a 0.49919772,0.49919772 43.552988 0 0 -0.498561,-0.47399 h -5.875401 l -1.268964,-25.65898 a 0.02394166,0.02394166 133.58437 0 1 0.02391,-0.0251 l 5.798073,0 a 0.50080389,0.50080389 133.5524 0 0 0.500165,-0.5261 l -1.218345,-24.09044 a 0.52592593,0.52592593 43.5524 0 0 -0.525255,-0.49936 h -5.85 l -1.26969,-25.684101 h 5.823229 A 0.50080389,0.50080389 133.5524 0 0 67.283496,75.43706 L 66.063868,51.321242 a 0.49919741,0.49919741 43.552401 0 0 -0.49856,-0.473983 h -5.875411 l -1.26969,-25.6841 h 5.823812 a 0.50029636,0.50029636 133.55511 0 0 0.49966,-0.525519 L 63.523953,0.47451142 A 0.49970381,0.49970381 43.555114 0 0 63.024884,0 H 52.8875 a 0.5,0.5 135 0 0 -0.5,0.5 v 3.2041667 h -25.4 V 0.5 a 0.5,0.5 45 0 0 -0.5,-0.5 h -3.786879 a 0.49995363,0.49995363 136.42878 0 0 -0.499332,0.47502933 z"
       sodipodi:nodetypes="ccccccccccccccccccccccccccccccccccccccccccccccccc"
       inkscape:path-effect="#path-effect3146"
       inkscape:original-d="m 22.225,0 -1.270207,25.447259 h -6.35 l -1.26969,25.1159 h 6.35 l -1.270206,25.6841 h -6.35 l -1.26969,25.115901 h 6.35 L 15.875,127.04726 h -6.35 l -1.2702067,25.1159 h 6.3499997 l -1.26969,25.6841 H 6.9851034 l -1.2702068,25.1159 h 6.3500004 l -1.26969,25.6841 H 4.4452067 L 3.175,254 h 23.8125 v 2.64583 h 25.4 V 254 H 69.85 l -1.270207,-25.63684 h 6.35 l -1.26969,-25.1159 h -6.35 l -1.270206,-25.6841 h 6.35 l -1.26969,-25.1159 h -6.35 L 63.5,126.76316 h 6.35 l -1.270207,-25.1159 h -6.35 l -1.26969,-25.684101 h 6.35 l -1.270206,-25.1159 h -6.35 l -1.26969,-25.6841 h 6.35 L 63.5,0 H 52.3875 v 3.7041667 h -25.4 V 0 Z"
       transform="translate(-0.02562903)"
       inkscape:label="alternate" />
    <path
       id="path1247"
       style="fill:#000000;stroke-width:0.1;stroke-linejoin:round"
       d="M 22.198545,3.1207179 20.954793,25.447259 h -5.87437 a 0.50028245,0.50028245 136.44701 0 0 -0.499644,0.475024 l -1.219138,24.115928 a 0.49971771,0.49971771 46.447012 0 0 0.49908,0.524948 h 5.824382 l -1.270206,25.6841 h -5.87437 a 0.50028244,0.50028244 136.44701 0 0 -0.499644,0.475024 l -1.219138,24.115927 a 0.49971771,0.49971771 46.447012 0 0 0.49908,0.52495 h 5.824382 L 15.875,127.04726 h -5.874379 a 0.50028255,0.50028255 136.4476 0 0 -0.4996442,0.47501 L 8.2813424,151.6382 a 0.4997176,0.4997176 46.4476 0 0 0.4990798,0.52496 h 5.8243708 l -1.26969,25.6841 H 7.4607241 a 0.50028256,0.50028256 136.4476 0 0 -0.499644,0.47501 L 5.7414457,202.4382 a 0.4997176,0.4997176 46.4476 0 0 0.4990798,0.52496 h 5.8243715 l -1.26969,25.6841 H 4.9208274 a 0.50004655,0.50004655 136.4341 0 0 -0.4994201,0.47502 L 3.2013017,253.47503 A 0.49995345,0.49995345 46.434099 0 0 3.7006289,254 H 26.9875 v 2.13783 a 0.508,0.508 45 0 0 0.508,0.508 h 24.384 a 0.508,0.508 135 0 0 0.508,-0.508 V 254 h 16.937407 a 0.49972112,0.49972112 133.58177 0 0 0.499109,-0.52445 l -1.244223,-25.11239 h 5.82324 a 0.50080356,0.50080356 133.55299 0 0 0.500165,-0.52609 l -1.219133,-24.11582 a 0.49919772,0.49919772 43.552988 0 0 -0.498561,-0.47399 h -5.875401 l -1.270206,-25.6841 h 5.82324 a 0.50080356,0.50080356 133.55299 0 0 0.500165,-0.52609 l -1.219133,-24.11582 a 0.49919772,0.49919772 43.552988 0 0 -0.498561,-0.47399 h -5.875401 l -1.268964,-25.65898 a 0.02394166,0.02394166 133.58437 0 1 0.02391,-0.0251 l 5.798073,0 a 0.50080389,0.50080389 133.5524 0 0 0.500165,-0.5261 l -1.218345,-24.09044 a 0.52592593,0.52592593 43.5524 0 0 -0.525255,-0.49936 h -5.85 l -1.26969,-25.684101 h 5.823229 A 0.50080389,0.50080389 133.5524 0 0 67.283496,75.43706 L 66.063868,51.321242 a 0.49919741,0.49919741 43.552401 0 0 -0.49856,-0.473983 h -5.875411 l -1.26969,-25.6841 h 5.823812 a 0.49734191,0.49734191 133.38568 0 0 0.496553,-0.525353 L 63.526759,3.1201949 A 0.50267229,0.50267229 43.385677 0 0 63.024884,2.6458334 H 52.3875 V 0.508 A 0.508,0.508 45 0 0 51.8795,0 h -24.384 a 0.508,0.508 135 0 0 -0.508,0.508 v 2.1378334 h -4.286879 a 0.50285374,0.50285374 136.59425 0 0 -0.502076,0.4748845 z"
       sodipodi:nodetypes="ccccccccccccccccccccccccccccccccccccccccccccccccc"
       inkscape:path-effect="#path-effect1251"
       inkscape:original-d="M 22.225,2.6458334 20.954793,25.447259 h -6.35 l -1.26969,25.1159 h 6.35 l -1.270206,25.6841 h -6.35 l -1.26969,25.115901 h 6.35 L 15.875,127.04726 h -6.35 l -1.2702067,25.1159 h 6.3499997 l -1.26969,25.6841 H 6.9851034 l -1.2702068,25.1159 h 6.3500004 l -1.26969,25.6841 H 4.4452067 L 3.175,254 h 23.8125 v 2.64583 h 25.4 V 254 H 69.85 l -1.270207,-25.63684 h 6.35 l -1.26969,-25.1159 h -6.35 l -1.270206,-25.6841 h 6.35 l -1.26969,-25.1159 h -6.35 L 63.5,126.76316 h 6.35 l -1.270207,-25.1159 h -6.35 l -1.26969,-25.684101 h 6.35 l -1.270206,-25.1159 h -6.35 l -1.26969,-25.6841 h 6.35 L 63.5,2.6458334 H 52.3875 V 0 h -25.4 v 2.6458334 z"
       transform="translate(-0.02562903)"
       inkscape:label="main" />
  </g>
  <g
     inkscape:groupmode="layer"
     id="layer3"
     inkscape:label="truss cuts"
     style="display:inline;fill:#800000"
     transform="translate(-3.2006754)">
    <path
       id="path4156"
       style="fill:#808080;stroke-width:0.1;stroke-linejoin:round"
       d="m 54.386492,64.007752 0.762016,24.384496 A 0.49237299,0.49237299 134.10504 0 1 54.656375,88.9 h -4.935058 a 0.508,0.508 135 0 0 -0.508,0.508 v 2.667 h -19.05 v -2.667 a 0.508,0.508 45 0 0 -0.508,-0.508 H 28.288 A 0.20363875,0.20363875 68.155944 0 1 28.14734,88.549108 L 54.003285,63.850892 a 0.22671713,0.22671713 22.260989 0 1 0.383207,0.15686 z m 1.290361,41.274998 0.762016,24.3845 a 0.49237299,0.49237299 134.10504 0 1 -0.492133,0.50775 h -6.225419 a 0.508,0.508 135 0 0 -0.508,0.508 l 0,2.667 h -19.05 v -2.667 a 0.508,0.508 45 0 0 -0.508,-0.508 h -2.358988 a 0.19164772,0.19164772 69.330551 0 1 -0.126586,-0.33554 l 28.109829,-24.72892 a 0.23932293,0.23932293 23.435596 0 1 0.397281,0.17221 z m 1.29036,41.275 0.762016,24.3845 A 0.49237299,0.49237299 134.10504 0 1 57.237096,171.45 h -7.515779 a 0.508,0.508 135 0 0 -0.508,0.508 l 0,2.667 h -19.05 v -2.667 a 0.508,0.508 45 0 0 -0.508,-0.508 h -3.350658 a 0.18084022,0.18084022 70.405049 0 1 -0.114272,-0.321 l 30.367231,-24.758 a 0.25106929,0.25106929 24.510094 0 1 0.409595,0.18675 z m 1.289855,41.275 0.762511,24.3845 a 0.49236297,0.49236297 134.10446 0 1 -0.492122,0.50775 h -8.80614 a 0.508,0.508 135 0 0 -0.508,0.508 l 0,2.667 h -19.05 v -2.667 a 0.508,0.508 45 0 0 -0.508,-0.508 h -4.342329 a 0.17107108,0.17107108 71.388837 0 1 -0.103483,-0.30729 l 32.627168,-24.78542 a 0.26202293,0.26202293 25.493299 0 1 0.420395,0.20046 z"
       inkscape:path-effect="#path-effect4172"
       inkscape:original-d="m 54.370625,63.5 0.79375,25.4 h -5.951058 v 3.175 h -19.05 V 88.9 H 27.78 Z m 1.290361,41.275 0.79375,25.4 h -7.241419 v 3.175 h -19.05 v -3.175 h -3.374988 z m 1.29036,41.275 0.79375,25.4 h -8.531779 v 3.175 h -19.05 v -3.175 h -4.366658 z m 1.289844,41.275 0.794267,25.4 h -9.82214 v 3.175 h -19.05 v -3.175 h -5.358329 z"
       inkscape:label="truss 2" />
    <path
       id="path4079-6"
       style="font-variation-settings:normal;display:inline;vector-effect:none;fill:#00ffff;fill-opacity:1;stroke-width:0.1;stroke-linecap:butt;stroke-linejoin:round;stroke-miterlimit:4;stroke-dasharray:none;stroke-dashoffset:0;stroke-opacity:1;-inkscape-stroke:none;stop-color:#000000"
       d="m 59.837165,239.20475 -0.513809,-16.447 A 0.52411788,0.52411788 44.105324 0 0 58.799494,222.25 H 29.591938 a 0.13410737,0.13410737 104.78819 0 0 -0.06619,0.25074 l 29.885475,16.96102 a 0.2852761,0.2852761 148.89351 0 0 0.425945,-0.25701 z m -39.985041,-11.6845 -0.514131,16.447 a 0.49236814,0.49236814 45.895237 0 0 0.492128,0.50775 h 30.276067 a 0.13419421,0.13419421 104.79735 0 0 0.06627,-0.25088 L 20.309723,227.26338 a 0.30641969,0.30641969 150.69258 0 0 -0.457599,0.25687 z"
       sodipodi:nodetypes="cccccccc"
       transform="translate(0.02562903)"
       inkscape:path-effect="#path-effect5174"
       inkscape:original-d="M 59.853027,239.7125 59.307494,222.25 H 29.083938 Z m -39.985031,-12.7 -0.545875,17.4625 h 31.292067 z"
       inkscape:label="alternate bottom" />
    <path
       id="rect4071"
       style="display:inline;fill:#ffffff;stroke-width:0.1;stroke-linejoin:round"
       d="m 21.540561,187.62898 11.93949,8.91704 a 0.37087669,0.37087669 90.622172 0 1 -0.0065,0.59905 l -12.521605,8.93486 a 0.25162484,0.25162484 28.139688 0 1 -0.397657,-0.21268 l 0.563401,-18.0345 a 0.26464548,0.26464548 154.27183 0 1 0.422876,-0.20377 z M 53.29898,180.975 H 26.075798 a 0.17592807,0.17592807 109.10174 0 0 -0.108804,0.31418 l 13.32131,10.48414 a 0.64546702,0.64546702 179.99978 0 0 0.79839,0 L 53.407786,181.28918 A 0.17593024,0.17593024 70.898039 0 0 53.29898,180.975 Z m -30.47991,-34.60691 11.068378,8.88882 a 0.39812901,0.39812901 90.680886 0 1 -0.0074,0.62668 l -11.648607,8.90782 a 0.24124375,0.24124375 27.191888 0 1 -0.387671,-0.19916 l 0.563401,-18.0345 a 0.25340127,0.25340127 155.27834 0 1 0.411947,-0.18966 z M 52.306386,139.7 H 27.067579 a 0.18614324,0.18614324 110.12403 0 0 -0.120267,0.32822 l 12.352049,10.45606 a 0.60010987,0.60010987 179.99976 0 0 0.775463,0 L 52.426656,140.02822 A 0.18614566,0.18614566 69.875728 0 0 52.306386,139.7 Z m -28.210416,-34.5919 10.200484,8.8588 a 0.42970332,0.42970332 90.746324 0 1 -0.0085,0.6561 l -10.778517,8.879 a 0.23006499,0.23006499 26.154351 0 1 -0.376232,-0.18475 l 0.563401,-18.0345 a 0.24130336,0.24130336 156.38132 0 1 0.39941,-0.17465 z M 51.313792,98.425 H 28.05936 a 0.19745242,0.19745242 111.2404 0 0 -0.133348,0.343074 l 11.386023,10.426356 a 0.55475273,0.55475273 179.99974 0 0 0.749301,-1e-5 L 51.447143,98.768078 A 0.19745508,0.19745508 68.759338 0 0 51.313792,98.425 Z M 25.370996,63.849001 34.707331,72.676 a 0.46671613,0.46671613 90.819033 0 1 -0.0098,0.687305 l -9.911808,8.84839 a 0.21801767,0.21801767 25.01684 0 1 -0.363102,-0.169447 l 0.563401,-18.034495 a 0.22828088,0.22828088 157.59154 0 1 0.385,-0.158752 z M 50.321197,57.15 l -21.270057,0 a 0.21001093,0.21001093 112.46056 0 0 -0.148296,0.358715 l 10.423731,10.39507 a 0.50939559,0.50939559 179.99972 0 0 0.719405,-4e-6 L 50.469496,57.508719 A 0.21001388,0.21001388 67.539155 0 0 50.321197,57.15 Z m -23.677342,-34.559257 8.476526,8.793515 a 0.51070455,0.51070455 90.899422 0 1 -0.01131,0.720237 l -9.049037,8.81601 a 0.20502857,0.20502857 23.768328 0 1 -0.348003,-0.153257 l 0.563401,-18.034495 a 0.21426279,0.21426279 158.92044 0 1 0.36842,-0.14201 z m 26.083948,2e-6 -8.476347,8.793509 a 0.51070484,0.51070484 89.100011 0 0 0.01131,0.720236 l 9.049219,8.816018 a 0.2050256,0.2050256 156.23083 0 0 0.347996,-0.153261 L 53.096229,22.732752 A 0.21426563,0.21426563 21.078704 0 0 52.727803,22.590745 Z M 50.092138,47.625 l -20.812124,0 A 0.21310784,0.21310784 67.241774 0 1 29.127972,47.262567 L 39.330009,36.874933 a 0.49892855,0.49892855 179.99971 0 1 0.711919,-3e-6 L 50.244177,47.26257 A 0.21310486,0.21310486 112.75794 0 1 50.092138,47.625 Z M 49.328605,15.875 H 30.042923 a 0.22399747,0.22399747 113.7946 0 0 -0.165384,0.375071 l 9.465719,10.362358 a 0.46403845,0.46403845 179.99969 0 0 0.685228,-3e-6 L 49.493993,16.250074 A 0.22400075,0.22400075 66.205094 0 0 49.328605,15.875 Z"
       inkscape:path-effect="#path-effect4174"
       inkscape:original-d="m 21.133547,187.325 12.753518,9.525 -13.348643,9.525 z m 32.673433,-6.35 H 25.567798 L 39.6875,192.0875 Z M 22.422985,146.05 34.283533,155.575 21.82786,165.1 Z M 52.814386,139.7 H 26.559579 l 13.127515,11.1125 z m -29.101964,-34.925 10.96758,9.525 -11.562705,9.525 z m 28.10937,-6.35 H 27.55136 l 12.135327,11.1125 z M 25.001858,63.500001 35.076469,73.025 24.406733,82.55 Z M 50.829197,57.15 H 28.54314 L 39.686279,68.2625 Z M 26.291297,22.225001 35.472939,31.75 25.696172,41.275 Z m 26.78906,-10e-7 -9.181455,9.524999 9.776955,9.525 z m -2.480219,25.4 H 28.772014 L 39.685967,36.5125 Z M 49.836605,15.875 H 29.534923 l 10.150951,11.1125 z"
       sodipodi:nodetypes="cccccccccccccccccccccccccccccccccccccccccccccccc"
       inkscape:label="truss 1" />
    <path
       id="path509"
       style="font-variation-settings:normal;display:none;vector-effect:none;fill:#00ffff;fill-opacity:1;stroke-width:0.1;stroke-linecap:butt;stroke-linejoin:round;stroke-miterlimit:4;stroke-dasharray:none;stroke-dashoffset:0;stroke-opacity:1;-inkscape-stroke:none;stop-color:#000000"
       d="m 59.985947,243.96725 -0.662591,-21.2095 A 0.52411789,0.52411789 44.105323 0 0 58.799494,222.25 H 20.524871 a 0.52412814,0.52412814 135.89524 0 0 -0.523872,0.50775 l -0.663006,21.2095 a 0.49236814,0.49236814 45.895237 0 0 0.492128,0.50775 h 39.663688 a 0.49237777,0.49237777 134.10532 0 0 0.492138,-0.50775 z"
       sodipodi:nodetypes="ccccc"
       transform="translate(0.02562903)"
       inkscape:path-effect="#path-effect516"
       inkscape:original-d="M 60.001809,244.475 59.307494,222.25 H 20.016871 l -0.69475,22.225 z"
       inkscape:label="bottom" />
  </g>
  <g
     inkscape:groupmode="layer"
     id="layer5"
     inkscape:label="hole"
     transform="translate(-3.2006754)">
    <path
       id="path9995"
       style="display:inline;fill:#ffff00;stroke-width:0.107;stroke-linejoin:round"
       d="m 39.689139,34.195223 c -1.350733,2.35e-4 -2.445976,-1.094433 -2.446447,-2.445167 -4.7e-4,-1.350733 1.094007,-2.446166 2.44474,-2.446873 1.350732,-7.07e-4 2.446357,1.09358 2.446829,2.445166 4.71e-4,1.351587 -1.094389,2.446639 -2.445122,2.446874 z"
       sodipodi:nodetypes="ssscs"
       inkscape:label="axle hole" />
  </g>
  <g
     inkscape:groupmode="layer"
     id="g4081"
     inkscape:label="truss cuts original"
     style="display:none;fill:#800000"
     transform="translate(-3.2006754)">
    <path
       id="path4935"
       style="font-variation-settings:normal;display:inline;vector-effect:none;fill:#ffffff;fill-opacity:1;stroke-width:0.1;stroke-linecap:butt;stroke-linejoin:round;stroke-miterlimit:4;stroke-dasharray:none;stroke-dashoffset:0;stroke-opacity:1;-inkscape-stroke:none;stop-color:#000000"
       d="m 60.225778,250.825 h -3.159735 l 0.08395,3.175 h 3.175 z M 28.941345,0 H 26.9875 l -0.09922,3.175 h 1.96911 z m 23.446154,0 h -1.953846 l 0.08395,3.175 h 1.969111 z m -30.07855,250.82499 h -3.15973 L 19.05,254 h 3.174995 z M 19.347656,244.475 20.042189,222.25 h 39.290622 l 0.694531,22.225 z m 5.457033,-31.75 h 34.230467 l -0.79375,-25.4 z m -3.671093,-25.4 12.753423,9.525 -13.348736,9.525 z m 32.673494,-6.35 H 25.567908 l 14.119593,11.1125 z M 25.796877,171.45 h 31.948436 l -0.79375,-25.4 z m -3.373438,-25.4 11.860455,9.525 -12.455767,9.525 z M 52.814902,139.7 H 26.560096 l 13.127405,11.1125 z m -26.025838,-9.525 h 29.666405 l -0.79375,-25.4 z m -3.075781,-25.4 10.967486,9.525 -11.562799,9.525 z m 28.109432,-6.35 H 27.552283 l 12.135218,11.1125 z M 27.78125,88.9 H 55.165624 L 54.371874,63.5 Z M 25.003125,63.5 35.077642,73.025 24.407812,82.55 Z M 50.830526,57.15 H 28.54447 L 39.687499,68.2625 Z M 26.29297,22.225 l 9.181549,9.525 -9.776861,9.525 z m 26.78906,0 -9.181549,9.525 9.776861,9.525 z m -2.480469,25.4 H 28.773437 L 39.687499,36.5125 Z M 49.83834,15.875 H 29.536659 l 10.150842,11.1125 z"
       sodipodi:nodetypes="ccccccccccccccccccccccccccccccccccccccccccccccccccccccccccccccccccccccccccccccccccccccccc"
       inkscape:label="undeformed"
       inkscape:path-effect="#path-effect1442"
       inkscape:original-d="m 60.325051,250.825 h -3.175 V 254 h 3.175 z M 22.225051,0 h -3.174999 v 3.175 h 3.174999 z m 38.100001,0 h -3.175 v 3.175 h 3.175 z M 22.225047,250.82499 H 19.050052 V 254 h 3.174995 z m -3.174995,-6.34999 2e-6,-22.225 h 41.274998 v 22.225 z m 4.762502,-31.75 h 36.5125 v -25.4 z m -4.7625,-25.4 14.287498,9.525 -14.287498,9.525 z m 36.512498,-6.35 h -31.75 l 15.875002,11.1125 z M 23.812554,171.45 h 36.5125 v -25.4 z m -4.7625,-25.4 14.287498,9.525 -14.287498,9.525 z m 36.512498,-6.35 h -31.75 l 15.875002,11.1125 z m -31.749998,-9.525 h 36.5125 v -25.4 z m -4.7625,-25.4 14.287498,9.525 -14.287498,9.525 z m 36.512498,-6.35 h -31.75 l 15.875002,11.1125 z m -31.75,-9.525 h 36.5125 V 63.5 Z M 19.050052,63.5 33.33755,73.025 19.050052,82.55 Z M 55.56255,57.15 h -31.75 L 39.687552,68.2625 Z M 19.050054,22.225 33.337552,31.75 19.050054,41.275 Z m 41.274998,0 -14.287498,9.525 14.287498,9.525 z m -4.7625,25.4 h -31.75 l 15.875,-11.1125 z m 0,-31.75 h -31.75 l 15.875002,11.1125 z" />
  </g>
</svg>
